G04 #@! TF.GenerationSoftware,KiCad,Pcbnew,5.1.0-060a0da~80~ubuntu18.04.1*
G04 #@! TF.CreationDate,2019-03-25T17:50:22+01:00*
G04 #@! TF.ProjectId,mav_ovp,6d61765f-6f76-4702-9e6b-696361645f70,rev?*
G04 #@! TF.SameCoordinates,Original*
G04 #@! TF.FileFunction,Soldermask,Bot*
G04 #@! TF.FilePolarity,Negative*
%FSLAX46Y46*%
G04 Gerber Fmt 4.6, Leading zero omitted, Abs format (unit mm)*
G04 Created by KiCad (PCBNEW 5.1.0-060a0da~80~ubuntu18.04.1) date 2019-03-25 17:50:22*
%MOMM*%
%LPD*%
G04 APERTURE LIST*
%ADD10C,0.100000*%
G04 APERTURE END LIST*
D10*
G36*
X104733351Y-107230743D02*
G01*
X104878942Y-107291049D01*
X105009970Y-107378599D01*
X105121401Y-107490030D01*
X105208951Y-107621058D01*
X105269257Y-107766649D01*
X105300000Y-107921207D01*
X105300000Y-108078793D01*
X105269257Y-108233351D01*
X105208951Y-108378942D01*
X105121401Y-108509970D01*
X105009970Y-108621401D01*
X104878942Y-108708951D01*
X104733351Y-108769257D01*
X104578793Y-108800000D01*
X104421207Y-108800000D01*
X104266649Y-108769257D01*
X104121058Y-108708951D01*
X103990030Y-108621401D01*
X103878599Y-108509970D01*
X103791049Y-108378942D01*
X103730743Y-108233351D01*
X103700000Y-108078793D01*
X103700000Y-107921207D01*
X103730743Y-107766649D01*
X103791049Y-107621058D01*
X103878599Y-107490030D01*
X103990030Y-107378599D01*
X104121058Y-107291049D01*
X104266649Y-107230743D01*
X104421207Y-107200000D01*
X104578793Y-107200000D01*
X104733351Y-107230743D01*
X104733351Y-107230743D01*
G37*
G36*
X95733351Y-107230743D02*
G01*
X95878942Y-107291049D01*
X96009970Y-107378599D01*
X96121401Y-107490030D01*
X96208951Y-107621058D01*
X96269257Y-107766649D01*
X96300000Y-107921207D01*
X96300000Y-108078793D01*
X96269257Y-108233351D01*
X96208951Y-108378942D01*
X96121401Y-108509970D01*
X96009970Y-108621401D01*
X95878942Y-108708951D01*
X95733351Y-108769257D01*
X95578793Y-108800000D01*
X95421207Y-108800000D01*
X95266649Y-108769257D01*
X95121058Y-108708951D01*
X94990030Y-108621401D01*
X94878599Y-108509970D01*
X94791049Y-108378942D01*
X94730743Y-108233351D01*
X94700000Y-108078793D01*
X94700000Y-107921207D01*
X94730743Y-107766649D01*
X94791049Y-107621058D01*
X94878599Y-107490030D01*
X94990030Y-107378599D01*
X95121058Y-107291049D01*
X95266649Y-107230743D01*
X95421207Y-107200000D01*
X95578793Y-107200000D01*
X95733351Y-107230743D01*
X95733351Y-107230743D01*
G37*
G36*
X104733351Y-87230743D02*
G01*
X104878942Y-87291049D01*
X105009970Y-87378599D01*
X105121401Y-87490030D01*
X105208951Y-87621058D01*
X105269257Y-87766649D01*
X105300000Y-87921207D01*
X105300000Y-88078793D01*
X105269257Y-88233351D01*
X105208951Y-88378942D01*
X105121401Y-88509970D01*
X105009970Y-88621401D01*
X104878942Y-88708951D01*
X104733351Y-88769257D01*
X104578793Y-88800000D01*
X104421207Y-88800000D01*
X104266649Y-88769257D01*
X104121058Y-88708951D01*
X103990030Y-88621401D01*
X103878599Y-88509970D01*
X103791049Y-88378942D01*
X103730743Y-88233351D01*
X103700000Y-88078793D01*
X103700000Y-87921207D01*
X103730743Y-87766649D01*
X103791049Y-87621058D01*
X103878599Y-87490030D01*
X103990030Y-87378599D01*
X104121058Y-87291049D01*
X104266649Y-87230743D01*
X104421207Y-87200000D01*
X104578793Y-87200000D01*
X104733351Y-87230743D01*
X104733351Y-87230743D01*
G37*
G36*
X95733351Y-87230743D02*
G01*
X95878942Y-87291049D01*
X96009970Y-87378599D01*
X96121401Y-87490030D01*
X96208951Y-87621058D01*
X96269257Y-87766649D01*
X96300000Y-87921207D01*
X96300000Y-88078793D01*
X96269257Y-88233351D01*
X96208951Y-88378942D01*
X96121401Y-88509970D01*
X96009970Y-88621401D01*
X95878942Y-88708951D01*
X95733351Y-88769257D01*
X95578793Y-88800000D01*
X95421207Y-88800000D01*
X95266649Y-88769257D01*
X95121058Y-88708951D01*
X94990030Y-88621401D01*
X94878599Y-88509970D01*
X94791049Y-88378942D01*
X94730743Y-88233351D01*
X94700000Y-88078793D01*
X94700000Y-87921207D01*
X94730743Y-87766649D01*
X94791049Y-87621058D01*
X94878599Y-87490030D01*
X94990030Y-87378599D01*
X95121058Y-87291049D01*
X95266649Y-87230743D01*
X95421207Y-87200000D01*
X95578793Y-87200000D01*
X95733351Y-87230743D01*
X95733351Y-87230743D01*
G37*
M02*
