G04 #@! TF.GenerationSoftware,KiCad,Pcbnew,5.1.0-060a0da~80~ubuntu18.04.1*
G04 #@! TF.CreationDate,2019-03-24T18:50:26+01:00*
G04 #@! TF.ProjectId,mav_ovp,6d61765f-6f76-4702-9e6b-696361645f70,rev?*
G04 #@! TF.SameCoordinates,Original*
G04 #@! TF.FileFunction,Paste,Top*
G04 #@! TF.FilePolarity,Positive*
%FSLAX46Y46*%
G04 Gerber Fmt 4.6, Leading zero omitted, Abs format (unit mm)*
G04 Created by KiCad (PCBNEW 5.1.0-060a0da~80~ubuntu18.04.1) date 2019-03-24 18:50:26*
%MOMM*%
%LPD*%
G04 APERTURE LIST*
%ADD10R,1.060000X0.400000*%
%ADD11R,3.500000X1.600000*%
%ADD12C,0.100000*%
%ADD13C,0.875000*%
%ADD14R,1.550000X0.600000*%
G04 APERTURE END LIST*
D10*
X104100000Y-102520000D03*
X104100000Y-103170000D03*
X104100000Y-103830000D03*
X104100000Y-104480000D03*
X101900000Y-104480000D03*
X101900000Y-103830000D03*
X101900000Y-103170000D03*
X101900000Y-102520000D03*
D11*
X102700000Y-92100000D03*
X97300000Y-92100000D03*
D12*
G36*
X104727691Y-100526053D02*
G01*
X104748926Y-100529203D01*
X104769750Y-100534419D01*
X104789962Y-100541651D01*
X104809368Y-100550830D01*
X104827781Y-100561866D01*
X104845024Y-100574654D01*
X104860930Y-100589070D01*
X104875346Y-100604976D01*
X104888134Y-100622219D01*
X104899170Y-100640632D01*
X104908349Y-100660038D01*
X104915581Y-100680250D01*
X104920797Y-100701074D01*
X104923947Y-100722309D01*
X104925000Y-100743750D01*
X104925000Y-101256250D01*
X104923947Y-101277691D01*
X104920797Y-101298926D01*
X104915581Y-101319750D01*
X104908349Y-101339962D01*
X104899170Y-101359368D01*
X104888134Y-101377781D01*
X104875346Y-101395024D01*
X104860930Y-101410930D01*
X104845024Y-101425346D01*
X104827781Y-101438134D01*
X104809368Y-101449170D01*
X104789962Y-101458349D01*
X104769750Y-101465581D01*
X104748926Y-101470797D01*
X104727691Y-101473947D01*
X104706250Y-101475000D01*
X104268750Y-101475000D01*
X104247309Y-101473947D01*
X104226074Y-101470797D01*
X104205250Y-101465581D01*
X104185038Y-101458349D01*
X104165632Y-101449170D01*
X104147219Y-101438134D01*
X104129976Y-101425346D01*
X104114070Y-101410930D01*
X104099654Y-101395024D01*
X104086866Y-101377781D01*
X104075830Y-101359368D01*
X104066651Y-101339962D01*
X104059419Y-101319750D01*
X104054203Y-101298926D01*
X104051053Y-101277691D01*
X104050000Y-101256250D01*
X104050000Y-100743750D01*
X104051053Y-100722309D01*
X104054203Y-100701074D01*
X104059419Y-100680250D01*
X104066651Y-100660038D01*
X104075830Y-100640632D01*
X104086866Y-100622219D01*
X104099654Y-100604976D01*
X104114070Y-100589070D01*
X104129976Y-100574654D01*
X104147219Y-100561866D01*
X104165632Y-100550830D01*
X104185038Y-100541651D01*
X104205250Y-100534419D01*
X104226074Y-100529203D01*
X104247309Y-100526053D01*
X104268750Y-100525000D01*
X104706250Y-100525000D01*
X104727691Y-100526053D01*
X104727691Y-100526053D01*
G37*
D13*
X104487500Y-101000000D03*
D12*
G36*
X103152691Y-100526053D02*
G01*
X103173926Y-100529203D01*
X103194750Y-100534419D01*
X103214962Y-100541651D01*
X103234368Y-100550830D01*
X103252781Y-100561866D01*
X103270024Y-100574654D01*
X103285930Y-100589070D01*
X103300346Y-100604976D01*
X103313134Y-100622219D01*
X103324170Y-100640632D01*
X103333349Y-100660038D01*
X103340581Y-100680250D01*
X103345797Y-100701074D01*
X103348947Y-100722309D01*
X103350000Y-100743750D01*
X103350000Y-101256250D01*
X103348947Y-101277691D01*
X103345797Y-101298926D01*
X103340581Y-101319750D01*
X103333349Y-101339962D01*
X103324170Y-101359368D01*
X103313134Y-101377781D01*
X103300346Y-101395024D01*
X103285930Y-101410930D01*
X103270024Y-101425346D01*
X103252781Y-101438134D01*
X103234368Y-101449170D01*
X103214962Y-101458349D01*
X103194750Y-101465581D01*
X103173926Y-101470797D01*
X103152691Y-101473947D01*
X103131250Y-101475000D01*
X102693750Y-101475000D01*
X102672309Y-101473947D01*
X102651074Y-101470797D01*
X102630250Y-101465581D01*
X102610038Y-101458349D01*
X102590632Y-101449170D01*
X102572219Y-101438134D01*
X102554976Y-101425346D01*
X102539070Y-101410930D01*
X102524654Y-101395024D01*
X102511866Y-101377781D01*
X102500830Y-101359368D01*
X102491651Y-101339962D01*
X102484419Y-101319750D01*
X102479203Y-101298926D01*
X102476053Y-101277691D01*
X102475000Y-101256250D01*
X102475000Y-100743750D01*
X102476053Y-100722309D01*
X102479203Y-100701074D01*
X102484419Y-100680250D01*
X102491651Y-100660038D01*
X102500830Y-100640632D01*
X102511866Y-100622219D01*
X102524654Y-100604976D01*
X102539070Y-100589070D01*
X102554976Y-100574654D01*
X102572219Y-100561866D01*
X102590632Y-100550830D01*
X102610038Y-100541651D01*
X102630250Y-100534419D01*
X102651074Y-100529203D01*
X102672309Y-100526053D01*
X102693750Y-100525000D01*
X103131250Y-100525000D01*
X103152691Y-100526053D01*
X103152691Y-100526053D01*
G37*
D13*
X102912500Y-101000000D03*
D14*
X95800000Y-100405000D03*
X95800000Y-99135000D03*
X95800000Y-97865000D03*
X95800000Y-96595000D03*
X101200000Y-96595000D03*
X101200000Y-97865000D03*
X101200000Y-99135000D03*
X101200000Y-100405000D03*
D12*
G36*
X100477691Y-103851053D02*
G01*
X100498926Y-103854203D01*
X100519750Y-103859419D01*
X100539962Y-103866651D01*
X100559368Y-103875830D01*
X100577781Y-103886866D01*
X100595024Y-103899654D01*
X100610930Y-103914070D01*
X100625346Y-103929976D01*
X100638134Y-103947219D01*
X100649170Y-103965632D01*
X100658349Y-103985038D01*
X100665581Y-104005250D01*
X100670797Y-104026074D01*
X100673947Y-104047309D01*
X100675000Y-104068750D01*
X100675000Y-104506250D01*
X100673947Y-104527691D01*
X100670797Y-104548926D01*
X100665581Y-104569750D01*
X100658349Y-104589962D01*
X100649170Y-104609368D01*
X100638134Y-104627781D01*
X100625346Y-104645024D01*
X100610930Y-104660930D01*
X100595024Y-104675346D01*
X100577781Y-104688134D01*
X100559368Y-104699170D01*
X100539962Y-104708349D01*
X100519750Y-104715581D01*
X100498926Y-104720797D01*
X100477691Y-104723947D01*
X100456250Y-104725000D01*
X99943750Y-104725000D01*
X99922309Y-104723947D01*
X99901074Y-104720797D01*
X99880250Y-104715581D01*
X99860038Y-104708349D01*
X99840632Y-104699170D01*
X99822219Y-104688134D01*
X99804976Y-104675346D01*
X99789070Y-104660930D01*
X99774654Y-104645024D01*
X99761866Y-104627781D01*
X99750830Y-104609368D01*
X99741651Y-104589962D01*
X99734419Y-104569750D01*
X99729203Y-104548926D01*
X99726053Y-104527691D01*
X99725000Y-104506250D01*
X99725000Y-104068750D01*
X99726053Y-104047309D01*
X99729203Y-104026074D01*
X99734419Y-104005250D01*
X99741651Y-103985038D01*
X99750830Y-103965632D01*
X99761866Y-103947219D01*
X99774654Y-103929976D01*
X99789070Y-103914070D01*
X99804976Y-103899654D01*
X99822219Y-103886866D01*
X99840632Y-103875830D01*
X99860038Y-103866651D01*
X99880250Y-103859419D01*
X99901074Y-103854203D01*
X99922309Y-103851053D01*
X99943750Y-103850000D01*
X100456250Y-103850000D01*
X100477691Y-103851053D01*
X100477691Y-103851053D01*
G37*
D13*
X100200000Y-104287500D03*
D12*
G36*
X100477691Y-102276053D02*
G01*
X100498926Y-102279203D01*
X100519750Y-102284419D01*
X100539962Y-102291651D01*
X100559368Y-102300830D01*
X100577781Y-102311866D01*
X100595024Y-102324654D01*
X100610930Y-102339070D01*
X100625346Y-102354976D01*
X100638134Y-102372219D01*
X100649170Y-102390632D01*
X100658349Y-102410038D01*
X100665581Y-102430250D01*
X100670797Y-102451074D01*
X100673947Y-102472309D01*
X100675000Y-102493750D01*
X100675000Y-102931250D01*
X100673947Y-102952691D01*
X100670797Y-102973926D01*
X100665581Y-102994750D01*
X100658349Y-103014962D01*
X100649170Y-103034368D01*
X100638134Y-103052781D01*
X100625346Y-103070024D01*
X100610930Y-103085930D01*
X100595024Y-103100346D01*
X100577781Y-103113134D01*
X100559368Y-103124170D01*
X100539962Y-103133349D01*
X100519750Y-103140581D01*
X100498926Y-103145797D01*
X100477691Y-103148947D01*
X100456250Y-103150000D01*
X99943750Y-103150000D01*
X99922309Y-103148947D01*
X99901074Y-103145797D01*
X99880250Y-103140581D01*
X99860038Y-103133349D01*
X99840632Y-103124170D01*
X99822219Y-103113134D01*
X99804976Y-103100346D01*
X99789070Y-103085930D01*
X99774654Y-103070024D01*
X99761866Y-103052781D01*
X99750830Y-103034368D01*
X99741651Y-103014962D01*
X99734419Y-102994750D01*
X99729203Y-102973926D01*
X99726053Y-102952691D01*
X99725000Y-102931250D01*
X99725000Y-102493750D01*
X99726053Y-102472309D01*
X99729203Y-102451074D01*
X99734419Y-102430250D01*
X99741651Y-102410038D01*
X99750830Y-102390632D01*
X99761866Y-102372219D01*
X99774654Y-102354976D01*
X99789070Y-102339070D01*
X99804976Y-102324654D01*
X99822219Y-102311866D01*
X99840632Y-102300830D01*
X99860038Y-102291651D01*
X99880250Y-102284419D01*
X99901074Y-102279203D01*
X99922309Y-102276053D01*
X99943750Y-102275000D01*
X100456250Y-102275000D01*
X100477691Y-102276053D01*
X100477691Y-102276053D01*
G37*
D13*
X100200000Y-102712500D03*
D12*
G36*
X98977691Y-103851053D02*
G01*
X98998926Y-103854203D01*
X99019750Y-103859419D01*
X99039962Y-103866651D01*
X99059368Y-103875830D01*
X99077781Y-103886866D01*
X99095024Y-103899654D01*
X99110930Y-103914070D01*
X99125346Y-103929976D01*
X99138134Y-103947219D01*
X99149170Y-103965632D01*
X99158349Y-103985038D01*
X99165581Y-104005250D01*
X99170797Y-104026074D01*
X99173947Y-104047309D01*
X99175000Y-104068750D01*
X99175000Y-104506250D01*
X99173947Y-104527691D01*
X99170797Y-104548926D01*
X99165581Y-104569750D01*
X99158349Y-104589962D01*
X99149170Y-104609368D01*
X99138134Y-104627781D01*
X99125346Y-104645024D01*
X99110930Y-104660930D01*
X99095024Y-104675346D01*
X99077781Y-104688134D01*
X99059368Y-104699170D01*
X99039962Y-104708349D01*
X99019750Y-104715581D01*
X98998926Y-104720797D01*
X98977691Y-104723947D01*
X98956250Y-104725000D01*
X98443750Y-104725000D01*
X98422309Y-104723947D01*
X98401074Y-104720797D01*
X98380250Y-104715581D01*
X98360038Y-104708349D01*
X98340632Y-104699170D01*
X98322219Y-104688134D01*
X98304976Y-104675346D01*
X98289070Y-104660930D01*
X98274654Y-104645024D01*
X98261866Y-104627781D01*
X98250830Y-104609368D01*
X98241651Y-104589962D01*
X98234419Y-104569750D01*
X98229203Y-104548926D01*
X98226053Y-104527691D01*
X98225000Y-104506250D01*
X98225000Y-104068750D01*
X98226053Y-104047309D01*
X98229203Y-104026074D01*
X98234419Y-104005250D01*
X98241651Y-103985038D01*
X98250830Y-103965632D01*
X98261866Y-103947219D01*
X98274654Y-103929976D01*
X98289070Y-103914070D01*
X98304976Y-103899654D01*
X98322219Y-103886866D01*
X98340632Y-103875830D01*
X98360038Y-103866651D01*
X98380250Y-103859419D01*
X98401074Y-103854203D01*
X98422309Y-103851053D01*
X98443750Y-103850000D01*
X98956250Y-103850000D01*
X98977691Y-103851053D01*
X98977691Y-103851053D01*
G37*
D13*
X98700000Y-104287500D03*
D12*
G36*
X98977691Y-102276053D02*
G01*
X98998926Y-102279203D01*
X99019750Y-102284419D01*
X99039962Y-102291651D01*
X99059368Y-102300830D01*
X99077781Y-102311866D01*
X99095024Y-102324654D01*
X99110930Y-102339070D01*
X99125346Y-102354976D01*
X99138134Y-102372219D01*
X99149170Y-102390632D01*
X99158349Y-102410038D01*
X99165581Y-102430250D01*
X99170797Y-102451074D01*
X99173947Y-102472309D01*
X99175000Y-102493750D01*
X99175000Y-102931250D01*
X99173947Y-102952691D01*
X99170797Y-102973926D01*
X99165581Y-102994750D01*
X99158349Y-103014962D01*
X99149170Y-103034368D01*
X99138134Y-103052781D01*
X99125346Y-103070024D01*
X99110930Y-103085930D01*
X99095024Y-103100346D01*
X99077781Y-103113134D01*
X99059368Y-103124170D01*
X99039962Y-103133349D01*
X99019750Y-103140581D01*
X98998926Y-103145797D01*
X98977691Y-103148947D01*
X98956250Y-103150000D01*
X98443750Y-103150000D01*
X98422309Y-103148947D01*
X98401074Y-103145797D01*
X98380250Y-103140581D01*
X98360038Y-103133349D01*
X98340632Y-103124170D01*
X98322219Y-103113134D01*
X98304976Y-103100346D01*
X98289070Y-103085930D01*
X98274654Y-103070024D01*
X98261866Y-103052781D01*
X98250830Y-103034368D01*
X98241651Y-103014962D01*
X98234419Y-102994750D01*
X98229203Y-102973926D01*
X98226053Y-102952691D01*
X98225000Y-102931250D01*
X98225000Y-102493750D01*
X98226053Y-102472309D01*
X98229203Y-102451074D01*
X98234419Y-102430250D01*
X98241651Y-102410038D01*
X98250830Y-102390632D01*
X98261866Y-102372219D01*
X98274654Y-102354976D01*
X98289070Y-102339070D01*
X98304976Y-102324654D01*
X98322219Y-102311866D01*
X98340632Y-102300830D01*
X98360038Y-102291651D01*
X98380250Y-102284419D01*
X98401074Y-102279203D01*
X98422309Y-102276053D01*
X98443750Y-102275000D01*
X98956250Y-102275000D01*
X98977691Y-102276053D01*
X98977691Y-102276053D01*
G37*
D13*
X98700000Y-102712500D03*
D12*
G36*
X98977691Y-105276053D02*
G01*
X98998926Y-105279203D01*
X99019750Y-105284419D01*
X99039962Y-105291651D01*
X99059368Y-105300830D01*
X99077781Y-105311866D01*
X99095024Y-105324654D01*
X99110930Y-105339070D01*
X99125346Y-105354976D01*
X99138134Y-105372219D01*
X99149170Y-105390632D01*
X99158349Y-105410038D01*
X99165581Y-105430250D01*
X99170797Y-105451074D01*
X99173947Y-105472309D01*
X99175000Y-105493750D01*
X99175000Y-105931250D01*
X99173947Y-105952691D01*
X99170797Y-105973926D01*
X99165581Y-105994750D01*
X99158349Y-106014962D01*
X99149170Y-106034368D01*
X99138134Y-106052781D01*
X99125346Y-106070024D01*
X99110930Y-106085930D01*
X99095024Y-106100346D01*
X99077781Y-106113134D01*
X99059368Y-106124170D01*
X99039962Y-106133349D01*
X99019750Y-106140581D01*
X98998926Y-106145797D01*
X98977691Y-106148947D01*
X98956250Y-106150000D01*
X98443750Y-106150000D01*
X98422309Y-106148947D01*
X98401074Y-106145797D01*
X98380250Y-106140581D01*
X98360038Y-106133349D01*
X98340632Y-106124170D01*
X98322219Y-106113134D01*
X98304976Y-106100346D01*
X98289070Y-106085930D01*
X98274654Y-106070024D01*
X98261866Y-106052781D01*
X98250830Y-106034368D01*
X98241651Y-106014962D01*
X98234419Y-105994750D01*
X98229203Y-105973926D01*
X98226053Y-105952691D01*
X98225000Y-105931250D01*
X98225000Y-105493750D01*
X98226053Y-105472309D01*
X98229203Y-105451074D01*
X98234419Y-105430250D01*
X98241651Y-105410038D01*
X98250830Y-105390632D01*
X98261866Y-105372219D01*
X98274654Y-105354976D01*
X98289070Y-105339070D01*
X98304976Y-105324654D01*
X98322219Y-105311866D01*
X98340632Y-105300830D01*
X98360038Y-105291651D01*
X98380250Y-105284419D01*
X98401074Y-105279203D01*
X98422309Y-105276053D01*
X98443750Y-105275000D01*
X98956250Y-105275000D01*
X98977691Y-105276053D01*
X98977691Y-105276053D01*
G37*
D13*
X98700000Y-105712500D03*
D12*
G36*
X98977691Y-106851053D02*
G01*
X98998926Y-106854203D01*
X99019750Y-106859419D01*
X99039962Y-106866651D01*
X99059368Y-106875830D01*
X99077781Y-106886866D01*
X99095024Y-106899654D01*
X99110930Y-106914070D01*
X99125346Y-106929976D01*
X99138134Y-106947219D01*
X99149170Y-106965632D01*
X99158349Y-106985038D01*
X99165581Y-107005250D01*
X99170797Y-107026074D01*
X99173947Y-107047309D01*
X99175000Y-107068750D01*
X99175000Y-107506250D01*
X99173947Y-107527691D01*
X99170797Y-107548926D01*
X99165581Y-107569750D01*
X99158349Y-107589962D01*
X99149170Y-107609368D01*
X99138134Y-107627781D01*
X99125346Y-107645024D01*
X99110930Y-107660930D01*
X99095024Y-107675346D01*
X99077781Y-107688134D01*
X99059368Y-107699170D01*
X99039962Y-107708349D01*
X99019750Y-107715581D01*
X98998926Y-107720797D01*
X98977691Y-107723947D01*
X98956250Y-107725000D01*
X98443750Y-107725000D01*
X98422309Y-107723947D01*
X98401074Y-107720797D01*
X98380250Y-107715581D01*
X98360038Y-107708349D01*
X98340632Y-107699170D01*
X98322219Y-107688134D01*
X98304976Y-107675346D01*
X98289070Y-107660930D01*
X98274654Y-107645024D01*
X98261866Y-107627781D01*
X98250830Y-107609368D01*
X98241651Y-107589962D01*
X98234419Y-107569750D01*
X98229203Y-107548926D01*
X98226053Y-107527691D01*
X98225000Y-107506250D01*
X98225000Y-107068750D01*
X98226053Y-107047309D01*
X98229203Y-107026074D01*
X98234419Y-107005250D01*
X98241651Y-106985038D01*
X98250830Y-106965632D01*
X98261866Y-106947219D01*
X98274654Y-106929976D01*
X98289070Y-106914070D01*
X98304976Y-106899654D01*
X98322219Y-106886866D01*
X98340632Y-106875830D01*
X98360038Y-106866651D01*
X98380250Y-106859419D01*
X98401074Y-106854203D01*
X98422309Y-106851053D01*
X98443750Y-106850000D01*
X98956250Y-106850000D01*
X98977691Y-106851053D01*
X98977691Y-106851053D01*
G37*
D13*
X98700000Y-107287500D03*
D12*
G36*
X100677691Y-106851053D02*
G01*
X100698926Y-106854203D01*
X100719750Y-106859419D01*
X100739962Y-106866651D01*
X100759368Y-106875830D01*
X100777781Y-106886866D01*
X100795024Y-106899654D01*
X100810930Y-106914070D01*
X100825346Y-106929976D01*
X100838134Y-106947219D01*
X100849170Y-106965632D01*
X100858349Y-106985038D01*
X100865581Y-107005250D01*
X100870797Y-107026074D01*
X100873947Y-107047309D01*
X100875000Y-107068750D01*
X100875000Y-107506250D01*
X100873947Y-107527691D01*
X100870797Y-107548926D01*
X100865581Y-107569750D01*
X100858349Y-107589962D01*
X100849170Y-107609368D01*
X100838134Y-107627781D01*
X100825346Y-107645024D01*
X100810930Y-107660930D01*
X100795024Y-107675346D01*
X100777781Y-107688134D01*
X100759368Y-107699170D01*
X100739962Y-107708349D01*
X100719750Y-107715581D01*
X100698926Y-107720797D01*
X100677691Y-107723947D01*
X100656250Y-107725000D01*
X100143750Y-107725000D01*
X100122309Y-107723947D01*
X100101074Y-107720797D01*
X100080250Y-107715581D01*
X100060038Y-107708349D01*
X100040632Y-107699170D01*
X100022219Y-107688134D01*
X100004976Y-107675346D01*
X99989070Y-107660930D01*
X99974654Y-107645024D01*
X99961866Y-107627781D01*
X99950830Y-107609368D01*
X99941651Y-107589962D01*
X99934419Y-107569750D01*
X99929203Y-107548926D01*
X99926053Y-107527691D01*
X99925000Y-107506250D01*
X99925000Y-107068750D01*
X99926053Y-107047309D01*
X99929203Y-107026074D01*
X99934419Y-107005250D01*
X99941651Y-106985038D01*
X99950830Y-106965632D01*
X99961866Y-106947219D01*
X99974654Y-106929976D01*
X99989070Y-106914070D01*
X100004976Y-106899654D01*
X100022219Y-106886866D01*
X100040632Y-106875830D01*
X100060038Y-106866651D01*
X100080250Y-106859419D01*
X100101074Y-106854203D01*
X100122309Y-106851053D01*
X100143750Y-106850000D01*
X100656250Y-106850000D01*
X100677691Y-106851053D01*
X100677691Y-106851053D01*
G37*
D13*
X100400000Y-107287500D03*
D12*
G36*
X100677691Y-105276053D02*
G01*
X100698926Y-105279203D01*
X100719750Y-105284419D01*
X100739962Y-105291651D01*
X100759368Y-105300830D01*
X100777781Y-105311866D01*
X100795024Y-105324654D01*
X100810930Y-105339070D01*
X100825346Y-105354976D01*
X100838134Y-105372219D01*
X100849170Y-105390632D01*
X100858349Y-105410038D01*
X100865581Y-105430250D01*
X100870797Y-105451074D01*
X100873947Y-105472309D01*
X100875000Y-105493750D01*
X100875000Y-105931250D01*
X100873947Y-105952691D01*
X100870797Y-105973926D01*
X100865581Y-105994750D01*
X100858349Y-106014962D01*
X100849170Y-106034368D01*
X100838134Y-106052781D01*
X100825346Y-106070024D01*
X100810930Y-106085930D01*
X100795024Y-106100346D01*
X100777781Y-106113134D01*
X100759368Y-106124170D01*
X100739962Y-106133349D01*
X100719750Y-106140581D01*
X100698926Y-106145797D01*
X100677691Y-106148947D01*
X100656250Y-106150000D01*
X100143750Y-106150000D01*
X100122309Y-106148947D01*
X100101074Y-106145797D01*
X100080250Y-106140581D01*
X100060038Y-106133349D01*
X100040632Y-106124170D01*
X100022219Y-106113134D01*
X100004976Y-106100346D01*
X99989070Y-106085930D01*
X99974654Y-106070024D01*
X99961866Y-106052781D01*
X99950830Y-106034368D01*
X99941651Y-106014962D01*
X99934419Y-105994750D01*
X99929203Y-105973926D01*
X99926053Y-105952691D01*
X99925000Y-105931250D01*
X99925000Y-105493750D01*
X99926053Y-105472309D01*
X99929203Y-105451074D01*
X99934419Y-105430250D01*
X99941651Y-105410038D01*
X99950830Y-105390632D01*
X99961866Y-105372219D01*
X99974654Y-105354976D01*
X99989070Y-105339070D01*
X100004976Y-105324654D01*
X100022219Y-105311866D01*
X100040632Y-105300830D01*
X100060038Y-105291651D01*
X100080250Y-105284419D01*
X100101074Y-105279203D01*
X100122309Y-105276053D01*
X100143750Y-105275000D01*
X100656250Y-105275000D01*
X100677691Y-105276053D01*
X100677691Y-105276053D01*
G37*
D13*
X100400000Y-105712500D03*
D12*
G36*
X103152691Y-97526053D02*
G01*
X103173926Y-97529203D01*
X103194750Y-97534419D01*
X103214962Y-97541651D01*
X103234368Y-97550830D01*
X103252781Y-97561866D01*
X103270024Y-97574654D01*
X103285930Y-97589070D01*
X103300346Y-97604976D01*
X103313134Y-97622219D01*
X103324170Y-97640632D01*
X103333349Y-97660038D01*
X103340581Y-97680250D01*
X103345797Y-97701074D01*
X103348947Y-97722309D01*
X103350000Y-97743750D01*
X103350000Y-98256250D01*
X103348947Y-98277691D01*
X103345797Y-98298926D01*
X103340581Y-98319750D01*
X103333349Y-98339962D01*
X103324170Y-98359368D01*
X103313134Y-98377781D01*
X103300346Y-98395024D01*
X103285930Y-98410930D01*
X103270024Y-98425346D01*
X103252781Y-98438134D01*
X103234368Y-98449170D01*
X103214962Y-98458349D01*
X103194750Y-98465581D01*
X103173926Y-98470797D01*
X103152691Y-98473947D01*
X103131250Y-98475000D01*
X102693750Y-98475000D01*
X102672309Y-98473947D01*
X102651074Y-98470797D01*
X102630250Y-98465581D01*
X102610038Y-98458349D01*
X102590632Y-98449170D01*
X102572219Y-98438134D01*
X102554976Y-98425346D01*
X102539070Y-98410930D01*
X102524654Y-98395024D01*
X102511866Y-98377781D01*
X102500830Y-98359368D01*
X102491651Y-98339962D01*
X102484419Y-98319750D01*
X102479203Y-98298926D01*
X102476053Y-98277691D01*
X102475000Y-98256250D01*
X102475000Y-97743750D01*
X102476053Y-97722309D01*
X102479203Y-97701074D01*
X102484419Y-97680250D01*
X102491651Y-97660038D01*
X102500830Y-97640632D01*
X102511866Y-97622219D01*
X102524654Y-97604976D01*
X102539070Y-97589070D01*
X102554976Y-97574654D01*
X102572219Y-97561866D01*
X102590632Y-97550830D01*
X102610038Y-97541651D01*
X102630250Y-97534419D01*
X102651074Y-97529203D01*
X102672309Y-97526053D01*
X102693750Y-97525000D01*
X103131250Y-97525000D01*
X103152691Y-97526053D01*
X103152691Y-97526053D01*
G37*
D13*
X102912500Y-98000000D03*
D12*
G36*
X104727691Y-97526053D02*
G01*
X104748926Y-97529203D01*
X104769750Y-97534419D01*
X104789962Y-97541651D01*
X104809368Y-97550830D01*
X104827781Y-97561866D01*
X104845024Y-97574654D01*
X104860930Y-97589070D01*
X104875346Y-97604976D01*
X104888134Y-97622219D01*
X104899170Y-97640632D01*
X104908349Y-97660038D01*
X104915581Y-97680250D01*
X104920797Y-97701074D01*
X104923947Y-97722309D01*
X104925000Y-97743750D01*
X104925000Y-98256250D01*
X104923947Y-98277691D01*
X104920797Y-98298926D01*
X104915581Y-98319750D01*
X104908349Y-98339962D01*
X104899170Y-98359368D01*
X104888134Y-98377781D01*
X104875346Y-98395024D01*
X104860930Y-98410930D01*
X104845024Y-98425346D01*
X104827781Y-98438134D01*
X104809368Y-98449170D01*
X104789962Y-98458349D01*
X104769750Y-98465581D01*
X104748926Y-98470797D01*
X104727691Y-98473947D01*
X104706250Y-98475000D01*
X104268750Y-98475000D01*
X104247309Y-98473947D01*
X104226074Y-98470797D01*
X104205250Y-98465581D01*
X104185038Y-98458349D01*
X104165632Y-98449170D01*
X104147219Y-98438134D01*
X104129976Y-98425346D01*
X104114070Y-98410930D01*
X104099654Y-98395024D01*
X104086866Y-98377781D01*
X104075830Y-98359368D01*
X104066651Y-98339962D01*
X104059419Y-98319750D01*
X104054203Y-98298926D01*
X104051053Y-98277691D01*
X104050000Y-98256250D01*
X104050000Y-97743750D01*
X104051053Y-97722309D01*
X104054203Y-97701074D01*
X104059419Y-97680250D01*
X104066651Y-97660038D01*
X104075830Y-97640632D01*
X104086866Y-97622219D01*
X104099654Y-97604976D01*
X104114070Y-97589070D01*
X104129976Y-97574654D01*
X104147219Y-97561866D01*
X104165632Y-97550830D01*
X104185038Y-97541651D01*
X104205250Y-97534419D01*
X104226074Y-97529203D01*
X104247309Y-97526053D01*
X104268750Y-97525000D01*
X104706250Y-97525000D01*
X104727691Y-97526053D01*
X104727691Y-97526053D01*
G37*
D13*
X104487500Y-98000000D03*
D12*
G36*
X104727691Y-96026053D02*
G01*
X104748926Y-96029203D01*
X104769750Y-96034419D01*
X104789962Y-96041651D01*
X104809368Y-96050830D01*
X104827781Y-96061866D01*
X104845024Y-96074654D01*
X104860930Y-96089070D01*
X104875346Y-96104976D01*
X104888134Y-96122219D01*
X104899170Y-96140632D01*
X104908349Y-96160038D01*
X104915581Y-96180250D01*
X104920797Y-96201074D01*
X104923947Y-96222309D01*
X104925000Y-96243750D01*
X104925000Y-96756250D01*
X104923947Y-96777691D01*
X104920797Y-96798926D01*
X104915581Y-96819750D01*
X104908349Y-96839962D01*
X104899170Y-96859368D01*
X104888134Y-96877781D01*
X104875346Y-96895024D01*
X104860930Y-96910930D01*
X104845024Y-96925346D01*
X104827781Y-96938134D01*
X104809368Y-96949170D01*
X104789962Y-96958349D01*
X104769750Y-96965581D01*
X104748926Y-96970797D01*
X104727691Y-96973947D01*
X104706250Y-96975000D01*
X104268750Y-96975000D01*
X104247309Y-96973947D01*
X104226074Y-96970797D01*
X104205250Y-96965581D01*
X104185038Y-96958349D01*
X104165632Y-96949170D01*
X104147219Y-96938134D01*
X104129976Y-96925346D01*
X104114070Y-96910930D01*
X104099654Y-96895024D01*
X104086866Y-96877781D01*
X104075830Y-96859368D01*
X104066651Y-96839962D01*
X104059419Y-96819750D01*
X104054203Y-96798926D01*
X104051053Y-96777691D01*
X104050000Y-96756250D01*
X104050000Y-96243750D01*
X104051053Y-96222309D01*
X104054203Y-96201074D01*
X104059419Y-96180250D01*
X104066651Y-96160038D01*
X104075830Y-96140632D01*
X104086866Y-96122219D01*
X104099654Y-96104976D01*
X104114070Y-96089070D01*
X104129976Y-96074654D01*
X104147219Y-96061866D01*
X104165632Y-96050830D01*
X104185038Y-96041651D01*
X104205250Y-96034419D01*
X104226074Y-96029203D01*
X104247309Y-96026053D01*
X104268750Y-96025000D01*
X104706250Y-96025000D01*
X104727691Y-96026053D01*
X104727691Y-96026053D01*
G37*
D13*
X104487500Y-96500000D03*
D12*
G36*
X103152691Y-96026053D02*
G01*
X103173926Y-96029203D01*
X103194750Y-96034419D01*
X103214962Y-96041651D01*
X103234368Y-96050830D01*
X103252781Y-96061866D01*
X103270024Y-96074654D01*
X103285930Y-96089070D01*
X103300346Y-96104976D01*
X103313134Y-96122219D01*
X103324170Y-96140632D01*
X103333349Y-96160038D01*
X103340581Y-96180250D01*
X103345797Y-96201074D01*
X103348947Y-96222309D01*
X103350000Y-96243750D01*
X103350000Y-96756250D01*
X103348947Y-96777691D01*
X103345797Y-96798926D01*
X103340581Y-96819750D01*
X103333349Y-96839962D01*
X103324170Y-96859368D01*
X103313134Y-96877781D01*
X103300346Y-96895024D01*
X103285930Y-96910930D01*
X103270024Y-96925346D01*
X103252781Y-96938134D01*
X103234368Y-96949170D01*
X103214962Y-96958349D01*
X103194750Y-96965581D01*
X103173926Y-96970797D01*
X103152691Y-96973947D01*
X103131250Y-96975000D01*
X102693750Y-96975000D01*
X102672309Y-96973947D01*
X102651074Y-96970797D01*
X102630250Y-96965581D01*
X102610038Y-96958349D01*
X102590632Y-96949170D01*
X102572219Y-96938134D01*
X102554976Y-96925346D01*
X102539070Y-96910930D01*
X102524654Y-96895024D01*
X102511866Y-96877781D01*
X102500830Y-96859368D01*
X102491651Y-96839962D01*
X102484419Y-96819750D01*
X102479203Y-96798926D01*
X102476053Y-96777691D01*
X102475000Y-96756250D01*
X102475000Y-96243750D01*
X102476053Y-96222309D01*
X102479203Y-96201074D01*
X102484419Y-96180250D01*
X102491651Y-96160038D01*
X102500830Y-96140632D01*
X102511866Y-96122219D01*
X102524654Y-96104976D01*
X102539070Y-96089070D01*
X102554976Y-96074654D01*
X102572219Y-96061866D01*
X102590632Y-96050830D01*
X102610038Y-96041651D01*
X102630250Y-96034419D01*
X102651074Y-96029203D01*
X102672309Y-96026053D01*
X102693750Y-96025000D01*
X103131250Y-96025000D01*
X103152691Y-96026053D01*
X103152691Y-96026053D01*
G37*
D13*
X102912500Y-96500000D03*
D12*
G36*
X104727691Y-99026053D02*
G01*
X104748926Y-99029203D01*
X104769750Y-99034419D01*
X104789962Y-99041651D01*
X104809368Y-99050830D01*
X104827781Y-99061866D01*
X104845024Y-99074654D01*
X104860930Y-99089070D01*
X104875346Y-99104976D01*
X104888134Y-99122219D01*
X104899170Y-99140632D01*
X104908349Y-99160038D01*
X104915581Y-99180250D01*
X104920797Y-99201074D01*
X104923947Y-99222309D01*
X104925000Y-99243750D01*
X104925000Y-99756250D01*
X104923947Y-99777691D01*
X104920797Y-99798926D01*
X104915581Y-99819750D01*
X104908349Y-99839962D01*
X104899170Y-99859368D01*
X104888134Y-99877781D01*
X104875346Y-99895024D01*
X104860930Y-99910930D01*
X104845024Y-99925346D01*
X104827781Y-99938134D01*
X104809368Y-99949170D01*
X104789962Y-99958349D01*
X104769750Y-99965581D01*
X104748926Y-99970797D01*
X104727691Y-99973947D01*
X104706250Y-99975000D01*
X104268750Y-99975000D01*
X104247309Y-99973947D01*
X104226074Y-99970797D01*
X104205250Y-99965581D01*
X104185038Y-99958349D01*
X104165632Y-99949170D01*
X104147219Y-99938134D01*
X104129976Y-99925346D01*
X104114070Y-99910930D01*
X104099654Y-99895024D01*
X104086866Y-99877781D01*
X104075830Y-99859368D01*
X104066651Y-99839962D01*
X104059419Y-99819750D01*
X104054203Y-99798926D01*
X104051053Y-99777691D01*
X104050000Y-99756250D01*
X104050000Y-99243750D01*
X104051053Y-99222309D01*
X104054203Y-99201074D01*
X104059419Y-99180250D01*
X104066651Y-99160038D01*
X104075830Y-99140632D01*
X104086866Y-99122219D01*
X104099654Y-99104976D01*
X104114070Y-99089070D01*
X104129976Y-99074654D01*
X104147219Y-99061866D01*
X104165632Y-99050830D01*
X104185038Y-99041651D01*
X104205250Y-99034419D01*
X104226074Y-99029203D01*
X104247309Y-99026053D01*
X104268750Y-99025000D01*
X104706250Y-99025000D01*
X104727691Y-99026053D01*
X104727691Y-99026053D01*
G37*
D13*
X104487500Y-99500000D03*
D12*
G36*
X103152691Y-99026053D02*
G01*
X103173926Y-99029203D01*
X103194750Y-99034419D01*
X103214962Y-99041651D01*
X103234368Y-99050830D01*
X103252781Y-99061866D01*
X103270024Y-99074654D01*
X103285930Y-99089070D01*
X103300346Y-99104976D01*
X103313134Y-99122219D01*
X103324170Y-99140632D01*
X103333349Y-99160038D01*
X103340581Y-99180250D01*
X103345797Y-99201074D01*
X103348947Y-99222309D01*
X103350000Y-99243750D01*
X103350000Y-99756250D01*
X103348947Y-99777691D01*
X103345797Y-99798926D01*
X103340581Y-99819750D01*
X103333349Y-99839962D01*
X103324170Y-99859368D01*
X103313134Y-99877781D01*
X103300346Y-99895024D01*
X103285930Y-99910930D01*
X103270024Y-99925346D01*
X103252781Y-99938134D01*
X103234368Y-99949170D01*
X103214962Y-99958349D01*
X103194750Y-99965581D01*
X103173926Y-99970797D01*
X103152691Y-99973947D01*
X103131250Y-99975000D01*
X102693750Y-99975000D01*
X102672309Y-99973947D01*
X102651074Y-99970797D01*
X102630250Y-99965581D01*
X102610038Y-99958349D01*
X102590632Y-99949170D01*
X102572219Y-99938134D01*
X102554976Y-99925346D01*
X102539070Y-99910930D01*
X102524654Y-99895024D01*
X102511866Y-99877781D01*
X102500830Y-99859368D01*
X102491651Y-99839962D01*
X102484419Y-99819750D01*
X102479203Y-99798926D01*
X102476053Y-99777691D01*
X102475000Y-99756250D01*
X102475000Y-99243750D01*
X102476053Y-99222309D01*
X102479203Y-99201074D01*
X102484419Y-99180250D01*
X102491651Y-99160038D01*
X102500830Y-99140632D01*
X102511866Y-99122219D01*
X102524654Y-99104976D01*
X102539070Y-99089070D01*
X102554976Y-99074654D01*
X102572219Y-99061866D01*
X102590632Y-99050830D01*
X102610038Y-99041651D01*
X102630250Y-99034419D01*
X102651074Y-99029203D01*
X102672309Y-99026053D01*
X102693750Y-99025000D01*
X103131250Y-99025000D01*
X103152691Y-99026053D01*
X103152691Y-99026053D01*
G37*
D13*
X102912500Y-99500000D03*
M02*
