G04 #@! TF.GenerationSoftware,KiCad,Pcbnew,5.1.0-060a0da~80~ubuntu18.04.1*
G04 #@! TF.CreationDate,2019-03-24T18:50:26+01:00*
G04 #@! TF.ProjectId,mav_ovp,6d61765f-6f76-4702-9e6b-696361645f70,rev?*
G04 #@! TF.SameCoordinates,Original*
G04 #@! TF.FileFunction,Copper,L2,Bot*
G04 #@! TF.FilePolarity,Positive*
%FSLAX46Y46*%
G04 Gerber Fmt 4.6, Leading zero omitted, Abs format (unit mm)*
G04 Created by KiCad (PCBNEW 5.1.0-060a0da~80~ubuntu18.04.1) date 2019-03-24 18:50:26*
%MOMM*%
%LPD*%
G04 APERTURE LIST*
%ADD10C,1.500000*%
%ADD11C,0.800000*%
%ADD12C,0.200000*%
G04 APERTURE END LIST*
D10*
X104500000Y-88000000D03*
X104500000Y-108000000D03*
X95500000Y-88000000D03*
X95500000Y-108000000D03*
D11*
X103000000Y-90000000D03*
X102800000Y-93700000D03*
X104500000Y-105400000D03*
X101700000Y-107200000D03*
X100100000Y-93100000D03*
X100000000Y-90000000D03*
X101700000Y-105299990D03*
D12*
G36*
X105125000Y-107625000D02*
G01*
X96481182Y-107625000D01*
X96430498Y-107502638D01*
X96315589Y-107330664D01*
X96169336Y-107184411D01*
X95997362Y-107069502D01*
X95806274Y-106990350D01*
X95603416Y-106950000D01*
X95396584Y-106950000D01*
X95193726Y-106990350D01*
X95002638Y-107069502D01*
X94875000Y-107154787D01*
X94875000Y-88845213D01*
X95002638Y-88930498D01*
X95193726Y-89009650D01*
X95396584Y-89050000D01*
X95603416Y-89050000D01*
X95806274Y-89009650D01*
X95997362Y-88930498D01*
X96169336Y-88815589D01*
X96315589Y-88669336D01*
X96430498Y-88497362D01*
X96481182Y-88375000D01*
X105125001Y-88375000D01*
X105125000Y-107625000D01*
X105125000Y-107625000D01*
G37*
X105125000Y-107625000D02*
X96481182Y-107625000D01*
X96430498Y-107502638D01*
X96315589Y-107330664D01*
X96169336Y-107184411D01*
X95997362Y-107069502D01*
X95806274Y-106990350D01*
X95603416Y-106950000D01*
X95396584Y-106950000D01*
X95193726Y-106990350D01*
X95002638Y-107069502D01*
X94875000Y-107154787D01*
X94875000Y-88845213D01*
X95002638Y-88930498D01*
X95193726Y-89009650D01*
X95396584Y-89050000D01*
X95603416Y-89050000D01*
X95806274Y-89009650D01*
X95997362Y-88930498D01*
X96169336Y-88815589D01*
X96315589Y-88669336D01*
X96430498Y-88497362D01*
X96481182Y-88375000D01*
X105125001Y-88375000D01*
X105125000Y-107625000D01*
M02*
