G04 #@! TF.GenerationSoftware,KiCad,Pcbnew,5.0.0-fee4fd1~66~ubuntu16.04.1*
G04 #@! TF.CreationDate,2018-09-13T19:17:13+02:00*
G04 #@! TF.ProjectId,mav_ovp,6D61765F6F76702E6B696361645F7063,rev?*
G04 #@! TF.SameCoordinates,Original*
G04 #@! TF.FileFunction,Legend,Bot*
G04 #@! TF.FilePolarity,Positive*
%FSLAX46Y46*%
G04 Gerber Fmt 4.6, Leading zero omitted, Abs format (unit mm)*
G04 Created by KiCad (PCBNEW 5.0.0-fee4fd1~66~ubuntu16.04.1) date Thu Sep 13 19:17:13 2018*
%MOMM*%
%LPD*%
G01*
G04 APERTURE LIST*
%ADD10C,0.300000*%
%ADD11R,1.900000X1.900000*%
G04 APERTURE END LIST*
D10*
X97628571Y-85464285D02*
X97628571Y-85750000D01*
X97700000Y-85892857D01*
X97842857Y-86035714D01*
X98128571Y-86107142D01*
X98628571Y-86107142D01*
X98914285Y-86035714D01*
X99057142Y-85892857D01*
X99128571Y-85750000D01*
X99128571Y-85464285D01*
X99057142Y-85321428D01*
X98914285Y-85178571D01*
X98628571Y-85107142D01*
X98128571Y-85107142D01*
X97842857Y-85178571D01*
X97700000Y-85321428D01*
X97628571Y-85464285D01*
X98128571Y-86607142D02*
X99128571Y-86964285D01*
X98128571Y-87321428D01*
X99057142Y-88464285D02*
X99128571Y-88321428D01*
X99128571Y-88035714D01*
X99057142Y-87892857D01*
X98914285Y-87821428D01*
X98342857Y-87821428D01*
X98200000Y-87892857D01*
X98128571Y-88035714D01*
X98128571Y-88321428D01*
X98200000Y-88464285D01*
X98342857Y-88535714D01*
X98485714Y-88535714D01*
X98628571Y-87821428D01*
X99128571Y-89178571D02*
X98128571Y-89178571D01*
X98414285Y-89178571D02*
X98271428Y-89250000D01*
X98200000Y-89321428D01*
X98128571Y-89464285D01*
X98128571Y-89607142D01*
X98128571Y-89964285D02*
X99128571Y-90321428D01*
X98128571Y-90678571D01*
X99128571Y-91464285D02*
X99057142Y-91321428D01*
X98985714Y-91250000D01*
X98842857Y-91178571D01*
X98414285Y-91178571D01*
X98271428Y-91250000D01*
X98200000Y-91321428D01*
X98128571Y-91464285D01*
X98128571Y-91678571D01*
X98200000Y-91821428D01*
X98271428Y-91892857D01*
X98414285Y-91964285D01*
X98842857Y-91964285D01*
X98985714Y-91892857D01*
X99057142Y-91821428D01*
X99128571Y-91678571D01*
X99128571Y-91464285D01*
X99128571Y-92821428D02*
X99057142Y-92678571D01*
X98914285Y-92607142D01*
X97628571Y-92607142D01*
X98128571Y-93178571D02*
X98128571Y-93750000D01*
X97628571Y-93392857D02*
X98914285Y-93392857D01*
X99057142Y-93464285D01*
X99128571Y-93607142D01*
X99128571Y-93750000D01*
X99128571Y-94892857D02*
X98342857Y-94892857D01*
X98200000Y-94821428D01*
X98128571Y-94678571D01*
X98128571Y-94392857D01*
X98200000Y-94250000D01*
X99057142Y-94892857D02*
X99128571Y-94750000D01*
X99128571Y-94392857D01*
X99057142Y-94250000D01*
X98914285Y-94178571D01*
X98771428Y-94178571D01*
X98628571Y-94250000D01*
X98557142Y-94392857D01*
X98557142Y-94750000D01*
X98485714Y-94892857D01*
X98128571Y-96250000D02*
X99342857Y-96250000D01*
X99485714Y-96178571D01*
X99557142Y-96107142D01*
X99628571Y-95964285D01*
X99628571Y-95750000D01*
X99557142Y-95607142D01*
X99057142Y-96250000D02*
X99128571Y-96107142D01*
X99128571Y-95821428D01*
X99057142Y-95678571D01*
X98985714Y-95607142D01*
X98842857Y-95535714D01*
X98414285Y-95535714D01*
X98271428Y-95607142D01*
X98200000Y-95678571D01*
X98128571Y-95821428D01*
X98128571Y-96107142D01*
X98200000Y-96250000D01*
X99057142Y-97535714D02*
X99128571Y-97392857D01*
X99128571Y-97107142D01*
X99057142Y-96964285D01*
X98914285Y-96892857D01*
X98342857Y-96892857D01*
X98200000Y-96964285D01*
X98128571Y-97107142D01*
X98128571Y-97392857D01*
X98200000Y-97535714D01*
X98342857Y-97607142D01*
X98485714Y-97607142D01*
X98628571Y-96892857D01*
X99700000Y-99821428D02*
X99628571Y-99750000D01*
X99414285Y-99607142D01*
X99271428Y-99535714D01*
X99057142Y-99464285D01*
X98700000Y-99392857D01*
X98414285Y-99392857D01*
X98057142Y-99464285D01*
X97842857Y-99535714D01*
X97700000Y-99607142D01*
X97485714Y-99750000D01*
X97414285Y-99821428D01*
X97628571Y-101035714D02*
X97628571Y-100750000D01*
X97700000Y-100607142D01*
X97771428Y-100535714D01*
X97985714Y-100392857D01*
X98271428Y-100321428D01*
X98842857Y-100321428D01*
X98985714Y-100392857D01*
X99057142Y-100464285D01*
X99128571Y-100607142D01*
X99128571Y-100892857D01*
X99057142Y-101035714D01*
X98985714Y-101107142D01*
X98842857Y-101178571D01*
X98485714Y-101178571D01*
X98342857Y-101107142D01*
X98271428Y-101035714D01*
X98200000Y-100892857D01*
X98200000Y-100607142D01*
X98271428Y-100464285D01*
X98342857Y-100392857D01*
X98485714Y-100321428D01*
X97628571Y-102107142D02*
X97628571Y-102250000D01*
X97700000Y-102392857D01*
X97771428Y-102464285D01*
X97914285Y-102535714D01*
X98200000Y-102607142D01*
X98557142Y-102607142D01*
X98842857Y-102535714D01*
X98985714Y-102464285D01*
X99057142Y-102392857D01*
X99128571Y-102250000D01*
X99128571Y-102107142D01*
X99057142Y-101964285D01*
X98985714Y-101892857D01*
X98842857Y-101821428D01*
X98557142Y-101750000D01*
X98200000Y-101750000D01*
X97914285Y-101821428D01*
X97771428Y-101892857D01*
X97700000Y-101964285D01*
X97628571Y-102107142D01*
X97628571Y-103035714D02*
X99128571Y-103535714D01*
X97628571Y-104035714D01*
X99700000Y-104392857D02*
X99628571Y-104464285D01*
X99414285Y-104607142D01*
X99271428Y-104678571D01*
X99057142Y-104750000D01*
X98700000Y-104821428D01*
X98414285Y-104821428D01*
X98057142Y-104750000D01*
X97842857Y-104678571D01*
X97700000Y-104607142D01*
X97485714Y-104464285D01*
X97414285Y-104392857D01*
X101678571Y-86142857D02*
X101678571Y-86071428D01*
X101607142Y-85928571D01*
X101392857Y-85714285D01*
X100964285Y-85357142D01*
X100750000Y-85214285D01*
X100535714Y-85142857D01*
X100392857Y-85142857D01*
X100250000Y-85214285D01*
X100178571Y-85357142D01*
X100178571Y-85428571D01*
X100250000Y-85571428D01*
X100392857Y-85642857D01*
X100464285Y-85642857D01*
X100607142Y-85571428D01*
X100678571Y-85500000D01*
X100964285Y-85071428D01*
X101035714Y-85000000D01*
X101178571Y-84928571D01*
X101392857Y-84928571D01*
X101535714Y-85000000D01*
X101607142Y-85071428D01*
X101678571Y-85214285D01*
X101678571Y-85428571D01*
X101607142Y-85571428D01*
X101535714Y-85642857D01*
X101250000Y-85857142D01*
X101035714Y-85928571D01*
X100892857Y-85928571D01*
X101607142Y-87857142D02*
X101678571Y-88071428D01*
X101678571Y-88428571D01*
X101607142Y-88571428D01*
X101535714Y-88642857D01*
X101392857Y-88714285D01*
X101250000Y-88714285D01*
X101107142Y-88642857D01*
X101035714Y-88571428D01*
X100964285Y-88428571D01*
X100892857Y-88142857D01*
X100821428Y-88000000D01*
X100750000Y-87928571D01*
X100607142Y-87857142D01*
X100464285Y-87857142D01*
X100321428Y-87928571D01*
X100250000Y-88000000D01*
X100178571Y-88142857D01*
X100178571Y-88500000D01*
X100250000Y-88714285D01*
X100678571Y-90000000D02*
X101678571Y-90000000D01*
X100678571Y-89357142D02*
X101464285Y-89357142D01*
X101607142Y-89428571D01*
X101678571Y-89571428D01*
X101678571Y-89785714D01*
X101607142Y-89928571D01*
X101535714Y-90000000D01*
X101678571Y-90714285D02*
X100678571Y-90714285D01*
X100964285Y-90714285D02*
X100821428Y-90785714D01*
X100750000Y-90857142D01*
X100678571Y-91000000D01*
X100678571Y-91142857D01*
X100678571Y-92285714D02*
X101892857Y-92285714D01*
X102035714Y-92214285D01*
X102107142Y-92142857D01*
X102178571Y-92000000D01*
X102178571Y-91785714D01*
X102107142Y-91642857D01*
X101607142Y-92285714D02*
X101678571Y-92142857D01*
X101678571Y-91857142D01*
X101607142Y-91714285D01*
X101535714Y-91642857D01*
X101392857Y-91571428D01*
X100964285Y-91571428D01*
X100821428Y-91642857D01*
X100750000Y-91714285D01*
X100678571Y-91857142D01*
X100678571Y-92142857D01*
X100750000Y-92285714D01*
X101607142Y-93571428D02*
X101678571Y-93428571D01*
X101678571Y-93142857D01*
X101607142Y-93000000D01*
X101464285Y-92928571D01*
X100892857Y-92928571D01*
X100750000Y-93000000D01*
X100678571Y-93142857D01*
X100678571Y-93428571D01*
X100750000Y-93571428D01*
X100892857Y-93642857D01*
X101035714Y-93642857D01*
X101178571Y-92928571D01*
X101678571Y-95428571D02*
X100178571Y-95428571D01*
X100178571Y-96000000D01*
X100250000Y-96142857D01*
X100321428Y-96214285D01*
X100464285Y-96285714D01*
X100678571Y-96285714D01*
X100821428Y-96214285D01*
X100892857Y-96142857D01*
X100964285Y-96000000D01*
X100964285Y-95428571D01*
X101678571Y-96928571D02*
X100678571Y-96928571D01*
X100964285Y-96928571D02*
X100821428Y-97000000D01*
X100750000Y-97071428D01*
X100678571Y-97214285D01*
X100678571Y-97357142D01*
X101678571Y-98071428D02*
X101607142Y-97928571D01*
X101535714Y-97857142D01*
X101392857Y-97785714D01*
X100964285Y-97785714D01*
X100821428Y-97857142D01*
X100750000Y-97928571D01*
X100678571Y-98071428D01*
X100678571Y-98285714D01*
X100750000Y-98428571D01*
X100821428Y-98500000D01*
X100964285Y-98571428D01*
X101392857Y-98571428D01*
X101535714Y-98500000D01*
X101607142Y-98428571D01*
X101678571Y-98285714D01*
X101678571Y-98071428D01*
X100678571Y-99000000D02*
X100678571Y-99571428D01*
X100178571Y-99214285D02*
X101464285Y-99214285D01*
X101607142Y-99285714D01*
X101678571Y-99428571D01*
X101678571Y-99571428D01*
X101607142Y-100642857D02*
X101678571Y-100500000D01*
X101678571Y-100214285D01*
X101607142Y-100071428D01*
X101464285Y-100000000D01*
X100892857Y-100000000D01*
X100750000Y-100071428D01*
X100678571Y-100214285D01*
X100678571Y-100500000D01*
X100750000Y-100642857D01*
X100892857Y-100714285D01*
X101035714Y-100714285D01*
X101178571Y-100000000D01*
X101607142Y-102000000D02*
X101678571Y-101857142D01*
X101678571Y-101571428D01*
X101607142Y-101428571D01*
X101535714Y-101357142D01*
X101392857Y-101285714D01*
X100964285Y-101285714D01*
X100821428Y-101357142D01*
X100750000Y-101428571D01*
X100678571Y-101571428D01*
X100678571Y-101857142D01*
X100750000Y-102000000D01*
X100678571Y-102428571D02*
X100678571Y-103000000D01*
X100178571Y-102642857D02*
X101464285Y-102642857D01*
X101607142Y-102714285D01*
X101678571Y-102857142D01*
X101678571Y-103000000D01*
X101678571Y-103714285D02*
X101607142Y-103571428D01*
X101535714Y-103500000D01*
X101392857Y-103428571D01*
X100964285Y-103428571D01*
X100821428Y-103500000D01*
X100750000Y-103571428D01*
X100678571Y-103714285D01*
X100678571Y-103928571D01*
X100750000Y-104071428D01*
X100821428Y-104142857D01*
X100964285Y-104214285D01*
X101392857Y-104214285D01*
X101535714Y-104142857D01*
X101607142Y-104071428D01*
X101678571Y-103928571D01*
X101678571Y-103714285D01*
X101678571Y-104857142D02*
X100678571Y-104857142D01*
X100964285Y-104857142D02*
X100821428Y-104928571D01*
X100750000Y-105000000D01*
X100678571Y-105142857D01*
X100678571Y-105285714D01*
X103442857Y-89392857D02*
X103442857Y-89892857D01*
X104228571Y-90107142D02*
X104228571Y-89392857D01*
X102728571Y-89392857D01*
X102728571Y-90107142D01*
X104228571Y-90750000D02*
X103228571Y-90750000D01*
X103371428Y-90750000D02*
X103300000Y-90821428D01*
X103228571Y-90964285D01*
X103228571Y-91178571D01*
X103300000Y-91321428D01*
X103442857Y-91392857D01*
X104228571Y-91392857D01*
X103442857Y-91392857D02*
X103300000Y-91464285D01*
X103228571Y-91607142D01*
X103228571Y-91821428D01*
X103300000Y-91964285D01*
X103442857Y-92035714D01*
X104228571Y-92035714D01*
X104228571Y-92750000D02*
X103228571Y-92750000D01*
X102728571Y-92750000D02*
X102800000Y-92678571D01*
X102871428Y-92750000D01*
X102800000Y-92821428D01*
X102728571Y-92750000D01*
X102871428Y-92750000D01*
X104228571Y-93678571D02*
X104157142Y-93535714D01*
X104014285Y-93464285D01*
X102728571Y-93464285D01*
X103442857Y-95892857D02*
X103442857Y-95392857D01*
X104228571Y-95392857D02*
X102728571Y-95392857D01*
X102728571Y-96107142D01*
X104228571Y-96678571D02*
X103228571Y-96678571D01*
X103514285Y-96678571D02*
X103371428Y-96750000D01*
X103300000Y-96821428D01*
X103228571Y-96964285D01*
X103228571Y-97107142D01*
X104157142Y-98178571D02*
X104228571Y-98035714D01*
X104228571Y-97750000D01*
X104157142Y-97607142D01*
X104014285Y-97535714D01*
X103442857Y-97535714D01*
X103300000Y-97607142D01*
X103228571Y-97750000D01*
X103228571Y-98035714D01*
X103300000Y-98178571D01*
X103442857Y-98250000D01*
X103585714Y-98250000D01*
X103728571Y-97535714D01*
X104157142Y-98821428D02*
X104228571Y-98964285D01*
X104228571Y-99250000D01*
X104157142Y-99392857D01*
X104014285Y-99464285D01*
X103942857Y-99464285D01*
X103800000Y-99392857D01*
X103728571Y-99250000D01*
X103728571Y-99035714D01*
X103657142Y-98892857D01*
X103514285Y-98821428D01*
X103442857Y-98821428D01*
X103300000Y-98892857D01*
X103228571Y-99035714D01*
X103228571Y-99250000D01*
X103300000Y-99392857D01*
X104228571Y-100107142D02*
X102728571Y-100107142D01*
X103657142Y-100250000D02*
X104228571Y-100678571D01*
X103228571Y-100678571D02*
X103800000Y-100107142D01*
X95078571Y-84157142D02*
X96578571Y-84657142D01*
X95078571Y-85157142D01*
X95078571Y-85942857D02*
X95078571Y-86228571D01*
X95150000Y-86371428D01*
X95292857Y-86514285D01*
X95578571Y-86585714D01*
X96078571Y-86585714D01*
X96364285Y-86514285D01*
X96507142Y-86371428D01*
X96578571Y-86228571D01*
X96578571Y-85942857D01*
X96507142Y-85800000D01*
X96364285Y-85657142D01*
X96078571Y-85585714D01*
X95578571Y-85585714D01*
X95292857Y-85657142D01*
X95150000Y-85800000D01*
X95078571Y-85942857D01*
X95078571Y-87228571D02*
X96292857Y-87228571D01*
X96435714Y-87300000D01*
X96507142Y-87371428D01*
X96578571Y-87514285D01*
X96578571Y-87800000D01*
X96507142Y-87942857D01*
X96435714Y-88014285D01*
X96292857Y-88085714D01*
X95078571Y-88085714D01*
X95078571Y-88585714D02*
X95078571Y-89442857D01*
X96578571Y-89014285D02*
X95078571Y-89014285D01*
X95078571Y-102057142D02*
X96578571Y-102557142D01*
X95078571Y-103057142D01*
X96578571Y-103557142D02*
X95078571Y-103557142D01*
X96578571Y-104271428D02*
X95078571Y-104271428D01*
X96578571Y-105128571D01*
X95078571Y-105128571D01*
X104950000Y-85057142D02*
X104878571Y-84914285D01*
X104878571Y-84700000D01*
X104950000Y-84485714D01*
X105092857Y-84342857D01*
X105235714Y-84271428D01*
X105521428Y-84200000D01*
X105735714Y-84200000D01*
X106021428Y-84271428D01*
X106164285Y-84342857D01*
X106307142Y-84485714D01*
X106378571Y-84700000D01*
X106378571Y-84842857D01*
X106307142Y-85057142D01*
X106235714Y-85128571D01*
X105735714Y-85128571D01*
X105735714Y-84842857D01*
X106378571Y-85771428D02*
X104878571Y-85771428D01*
X106378571Y-86628571D01*
X104878571Y-86628571D01*
X106378571Y-87342857D02*
X104878571Y-87342857D01*
X104878571Y-87700000D01*
X104950000Y-87914285D01*
X105092857Y-88057142D01*
X105235714Y-88128571D01*
X105521428Y-88200000D01*
X105735714Y-88200000D01*
X106021428Y-88128571D01*
X106164285Y-88057142D01*
X106307142Y-87914285D01*
X106378571Y-87700000D01*
X106378571Y-87342857D01*
X104950000Y-102357142D02*
X104878571Y-102214285D01*
X104878571Y-102000000D01*
X104950000Y-101785714D01*
X105092857Y-101642857D01*
X105235714Y-101571428D01*
X105521428Y-101500000D01*
X105735714Y-101500000D01*
X106021428Y-101571428D01*
X106164285Y-101642857D01*
X106307142Y-101785714D01*
X106378571Y-102000000D01*
X106378571Y-102142857D01*
X106307142Y-102357142D01*
X106235714Y-102428571D01*
X105735714Y-102428571D01*
X105735714Y-102142857D01*
X106378571Y-103071428D02*
X104878571Y-103071428D01*
X106378571Y-103928571D01*
X104878571Y-103928571D01*
X106378571Y-104642857D02*
X104878571Y-104642857D01*
X104878571Y-105000000D01*
X104950000Y-105214285D01*
X105092857Y-105357142D01*
X105235714Y-105428571D01*
X105521428Y-105500000D01*
X105735714Y-105500000D01*
X106021428Y-105428571D01*
X106164285Y-105357142D01*
X106307142Y-105214285D01*
X106378571Y-105000000D01*
X106378571Y-104642857D01*
%LPC*%
D11*
G04 #@! TO.C,J4*
X106000000Y-82500000D03*
G04 #@! TD*
G04 #@! TO.C,J3*
X106000000Y-107000000D03*
G04 #@! TD*
G04 #@! TO.C,J2*
X95500000Y-82500000D03*
G04 #@! TD*
G04 #@! TO.C,J1*
X95500000Y-107000000D03*
G04 #@! TD*
M02*
