G04 #@! TF.GenerationSoftware,KiCad,Pcbnew,5.1.0-060a0da~80~ubuntu18.04.1*
G04 #@! TF.CreationDate,2019-03-24T18:50:26+01:00*
G04 #@! TF.ProjectId,mav_ovp,6d61765f-6f76-4702-9e6b-696361645f70,rev?*
G04 #@! TF.SameCoordinates,Original*
G04 #@! TF.FileFunction,Soldermask,Bot*
G04 #@! TF.FilePolarity,Negative*
%FSLAX46Y46*%
G04 Gerber Fmt 4.6, Leading zero omitted, Abs format (unit mm)*
G04 Created by KiCad (PCBNEW 5.1.0-060a0da~80~ubuntu18.04.1) date 2019-03-24 18:50:26*
%MOMM*%
%LPD*%
G04 APERTURE LIST*
%ADD10C,0.100000*%
G04 APERTURE END LIST*
D10*
G36*
X104747935Y-107182664D02*
G01*
X104902624Y-107246739D01*
X104902626Y-107246740D01*
X105041844Y-107339762D01*
X105160238Y-107458156D01*
X105253260Y-107597374D01*
X105253261Y-107597376D01*
X105317336Y-107752065D01*
X105350000Y-107916281D01*
X105350000Y-108083719D01*
X105317336Y-108247935D01*
X105253261Y-108402624D01*
X105253260Y-108402626D01*
X105160238Y-108541844D01*
X105041844Y-108660238D01*
X104902626Y-108753260D01*
X104902625Y-108753261D01*
X104902624Y-108753261D01*
X104747935Y-108817336D01*
X104583719Y-108850000D01*
X104416281Y-108850000D01*
X104252065Y-108817336D01*
X104097376Y-108753261D01*
X104097375Y-108753261D01*
X104097374Y-108753260D01*
X103958156Y-108660238D01*
X103839762Y-108541844D01*
X103746740Y-108402626D01*
X103746739Y-108402624D01*
X103682664Y-108247935D01*
X103650000Y-108083719D01*
X103650000Y-107916281D01*
X103682664Y-107752065D01*
X103746739Y-107597376D01*
X103746740Y-107597374D01*
X103839762Y-107458156D01*
X103958156Y-107339762D01*
X104097374Y-107246740D01*
X104097376Y-107246739D01*
X104252065Y-107182664D01*
X104416281Y-107150000D01*
X104583719Y-107150000D01*
X104747935Y-107182664D01*
X104747935Y-107182664D01*
G37*
G36*
X95747935Y-107182664D02*
G01*
X95902624Y-107246739D01*
X95902626Y-107246740D01*
X96041844Y-107339762D01*
X96160238Y-107458156D01*
X96253260Y-107597374D01*
X96253261Y-107597376D01*
X96317336Y-107752065D01*
X96350000Y-107916281D01*
X96350000Y-108083719D01*
X96317336Y-108247935D01*
X96253261Y-108402624D01*
X96253260Y-108402626D01*
X96160238Y-108541844D01*
X96041844Y-108660238D01*
X95902626Y-108753260D01*
X95902625Y-108753261D01*
X95902624Y-108753261D01*
X95747935Y-108817336D01*
X95583719Y-108850000D01*
X95416281Y-108850000D01*
X95252065Y-108817336D01*
X95097376Y-108753261D01*
X95097375Y-108753261D01*
X95097374Y-108753260D01*
X94958156Y-108660238D01*
X94839762Y-108541844D01*
X94746740Y-108402626D01*
X94746739Y-108402624D01*
X94682664Y-108247935D01*
X94650000Y-108083719D01*
X94650000Y-107916281D01*
X94682664Y-107752065D01*
X94746739Y-107597376D01*
X94746740Y-107597374D01*
X94839762Y-107458156D01*
X94958156Y-107339762D01*
X95097374Y-107246740D01*
X95097376Y-107246739D01*
X95252065Y-107182664D01*
X95416281Y-107150000D01*
X95583719Y-107150000D01*
X95747935Y-107182664D01*
X95747935Y-107182664D01*
G37*
G36*
X104747935Y-87182664D02*
G01*
X104902624Y-87246739D01*
X104902626Y-87246740D01*
X105041844Y-87339762D01*
X105160238Y-87458156D01*
X105253260Y-87597374D01*
X105253261Y-87597376D01*
X105317336Y-87752065D01*
X105350000Y-87916281D01*
X105350000Y-88083719D01*
X105317336Y-88247935D01*
X105253261Y-88402624D01*
X105253260Y-88402626D01*
X105160238Y-88541844D01*
X105041844Y-88660238D01*
X104902626Y-88753260D01*
X104902625Y-88753261D01*
X104902624Y-88753261D01*
X104747935Y-88817336D01*
X104583719Y-88850000D01*
X104416281Y-88850000D01*
X104252065Y-88817336D01*
X104097376Y-88753261D01*
X104097375Y-88753261D01*
X104097374Y-88753260D01*
X103958156Y-88660238D01*
X103839762Y-88541844D01*
X103746740Y-88402626D01*
X103746739Y-88402624D01*
X103682664Y-88247935D01*
X103650000Y-88083719D01*
X103650000Y-87916281D01*
X103682664Y-87752065D01*
X103746739Y-87597376D01*
X103746740Y-87597374D01*
X103839762Y-87458156D01*
X103958156Y-87339762D01*
X104097374Y-87246740D01*
X104097376Y-87246739D01*
X104252065Y-87182664D01*
X104416281Y-87150000D01*
X104583719Y-87150000D01*
X104747935Y-87182664D01*
X104747935Y-87182664D01*
G37*
G36*
X95747935Y-87182664D02*
G01*
X95902624Y-87246739D01*
X95902626Y-87246740D01*
X96041844Y-87339762D01*
X96160238Y-87458156D01*
X96253260Y-87597374D01*
X96253261Y-87597376D01*
X96317336Y-87752065D01*
X96350000Y-87916281D01*
X96350000Y-88083719D01*
X96317336Y-88247935D01*
X96253261Y-88402624D01*
X96253260Y-88402626D01*
X96160238Y-88541844D01*
X96041844Y-88660238D01*
X95902626Y-88753260D01*
X95902625Y-88753261D01*
X95902624Y-88753261D01*
X95747935Y-88817336D01*
X95583719Y-88850000D01*
X95416281Y-88850000D01*
X95252065Y-88817336D01*
X95097376Y-88753261D01*
X95097375Y-88753261D01*
X95097374Y-88753260D01*
X94958156Y-88660238D01*
X94839762Y-88541844D01*
X94746740Y-88402626D01*
X94746739Y-88402624D01*
X94682664Y-88247935D01*
X94650000Y-88083719D01*
X94650000Y-87916281D01*
X94682664Y-87752065D01*
X94746739Y-87597376D01*
X94746740Y-87597374D01*
X94839762Y-87458156D01*
X94958156Y-87339762D01*
X95097374Y-87246740D01*
X95097376Y-87246739D01*
X95252065Y-87182664D01*
X95416281Y-87150000D01*
X95583719Y-87150000D01*
X95747935Y-87182664D01*
X95747935Y-87182664D01*
G37*
M02*
