G04 #@! TF.GenerationSoftware,KiCad,Pcbnew,5.0.0-fee4fd1~66~ubuntu16.04.1*
G04 #@! TF.CreationDate,2018-09-13T19:17:13+02:00*
G04 #@! TF.ProjectId,mav_ovp,6D61765F6F76702E6B696361645F7063,rev?*
G04 #@! TF.SameCoordinates,Original*
G04 #@! TF.FileFunction,Copper,L2,Bot,Signal*
G04 #@! TF.FilePolarity,Positive*
%FSLAX46Y46*%
G04 Gerber Fmt 4.6, Leading zero omitted, Abs format (unit mm)*
G04 Created by KiCad (PCBNEW 5.0.0-fee4fd1~66~ubuntu16.04.1) date Thu Sep 13 19:17:13 2018*
%MOMM*%
%LPD*%
G01*
G04 APERTURE LIST*
G04 #@! TA.AperFunction,ComponentPad*
%ADD10R,1.700000X1.700000*%
G04 #@! TD*
G04 #@! TA.AperFunction,ViaPad*
%ADD11C,0.800000*%
G04 #@! TD*
G04 #@! TA.AperFunction,Conductor*
%ADD12C,0.200000*%
G04 #@! TD*
G04 APERTURE END LIST*
D10*
G04 #@! TO.P,J4,1*
G04 #@! TO.N,GND*
X106000000Y-82500000D03*
G04 #@! TD*
G04 #@! TO.P,J3,1*
G04 #@! TO.N,GND*
X106000000Y-107000000D03*
G04 #@! TD*
G04 #@! TO.P,J2,1*
G04 #@! TO.N,/VOUT*
X95500000Y-82500000D03*
G04 #@! TD*
G04 #@! TO.P,J1,1*
G04 #@! TO.N,/VIN*
X95500000Y-107000000D03*
G04 #@! TD*
D11*
G04 #@! TO.N,GND*
X106324974Y-99500000D03*
X101930024Y-105300000D03*
X106300000Y-101600000D03*
X102600000Y-98800000D03*
X99000000Y-107200000D03*
X104200000Y-107200000D03*
X101700000Y-107200000D03*
X105400000Y-93200000D03*
X99700000Y-93300000D03*
X99900000Y-85100000D03*
X105500000Y-85100000D03*
G04 #@! TD*
D12*
G04 #@! TO.N,GND*
G36*
X106625000Y-107625000D02*
X96655877Y-107625000D01*
X96655877Y-106150000D01*
X96632593Y-106032946D01*
X96566288Y-105933712D01*
X96467054Y-105867407D01*
X96350000Y-105844123D01*
X94875000Y-105844123D01*
X94875000Y-83655877D01*
X96350000Y-83655877D01*
X96467054Y-83632593D01*
X96566288Y-83566288D01*
X96632593Y-83467054D01*
X96655877Y-83350000D01*
X96655877Y-81875000D01*
X106625001Y-81875000D01*
X106625000Y-107625000D01*
X106625000Y-107625000D01*
G37*
X106625000Y-107625000D02*
X96655877Y-107625000D01*
X96655877Y-106150000D01*
X96632593Y-106032946D01*
X96566288Y-105933712D01*
X96467054Y-105867407D01*
X96350000Y-105844123D01*
X94875000Y-105844123D01*
X94875000Y-83655877D01*
X96350000Y-83655877D01*
X96467054Y-83632593D01*
X96566288Y-83566288D01*
X96632593Y-83467054D01*
X96655877Y-83350000D01*
X96655877Y-81875000D01*
X106625001Y-81875000D01*
X106625000Y-107625000D01*
G04 #@! TD*
M02*
