G04 #@! TF.GenerationSoftware,KiCad,Pcbnew,5.0.0-fee4fd1~66~ubuntu16.04.1*
G04 #@! TF.CreationDate,2018-09-13T19:17:13+02:00*
G04 #@! TF.ProjectId,mav_ovp,6D61765F6F76702E6B696361645F7063,rev?*
G04 #@! TF.SameCoordinates,Original*
G04 #@! TF.FileFunction,Paste,Top*
G04 #@! TF.FilePolarity,Positive*
%FSLAX46Y46*%
G04 Gerber Fmt 4.6, Leading zero omitted, Abs format (unit mm)*
G04 Created by KiCad (PCBNEW 5.0.0-fee4fd1~66~ubuntu16.04.1) date Thu Sep 13 19:17:13 2018*
%MOMM*%
%LPD*%
G01*
G04 APERTURE LIST*
%ADD10R,4.000000X2.500000*%
%ADD11C,0.100000*%
%ADD12C,0.875000*%
%ADD13R,1.550000X0.600000*%
%ADD14R,1.060000X0.400000*%
G04 APERTURE END LIST*
D10*
G04 #@! TO.C,C1*
X96810001Y-89925001D03*
X104810001Y-89925001D03*
G04 #@! TD*
D11*
G04 #@! TO.C,C2*
G36*
X103952691Y-99026053D02*
X103973926Y-99029203D01*
X103994750Y-99034419D01*
X104014962Y-99041651D01*
X104034368Y-99050830D01*
X104052781Y-99061866D01*
X104070024Y-99074654D01*
X104085930Y-99089070D01*
X104100346Y-99104976D01*
X104113134Y-99122219D01*
X104124170Y-99140632D01*
X104133349Y-99160038D01*
X104140581Y-99180250D01*
X104145797Y-99201074D01*
X104148947Y-99222309D01*
X104150000Y-99243750D01*
X104150000Y-99756250D01*
X104148947Y-99777691D01*
X104145797Y-99798926D01*
X104140581Y-99819750D01*
X104133349Y-99839962D01*
X104124170Y-99859368D01*
X104113134Y-99877781D01*
X104100346Y-99895024D01*
X104085930Y-99910930D01*
X104070024Y-99925346D01*
X104052781Y-99938134D01*
X104034368Y-99949170D01*
X104014962Y-99958349D01*
X103994750Y-99965581D01*
X103973926Y-99970797D01*
X103952691Y-99973947D01*
X103931250Y-99975000D01*
X103493750Y-99975000D01*
X103472309Y-99973947D01*
X103451074Y-99970797D01*
X103430250Y-99965581D01*
X103410038Y-99958349D01*
X103390632Y-99949170D01*
X103372219Y-99938134D01*
X103354976Y-99925346D01*
X103339070Y-99910930D01*
X103324654Y-99895024D01*
X103311866Y-99877781D01*
X103300830Y-99859368D01*
X103291651Y-99839962D01*
X103284419Y-99819750D01*
X103279203Y-99798926D01*
X103276053Y-99777691D01*
X103275000Y-99756250D01*
X103275000Y-99243750D01*
X103276053Y-99222309D01*
X103279203Y-99201074D01*
X103284419Y-99180250D01*
X103291651Y-99160038D01*
X103300830Y-99140632D01*
X103311866Y-99122219D01*
X103324654Y-99104976D01*
X103339070Y-99089070D01*
X103354976Y-99074654D01*
X103372219Y-99061866D01*
X103390632Y-99050830D01*
X103410038Y-99041651D01*
X103430250Y-99034419D01*
X103451074Y-99029203D01*
X103472309Y-99026053D01*
X103493750Y-99025000D01*
X103931250Y-99025000D01*
X103952691Y-99026053D01*
X103952691Y-99026053D01*
G37*
D12*
X103712500Y-99500000D03*
D11*
G36*
X105527691Y-99026053D02*
X105548926Y-99029203D01*
X105569750Y-99034419D01*
X105589962Y-99041651D01*
X105609368Y-99050830D01*
X105627781Y-99061866D01*
X105645024Y-99074654D01*
X105660930Y-99089070D01*
X105675346Y-99104976D01*
X105688134Y-99122219D01*
X105699170Y-99140632D01*
X105708349Y-99160038D01*
X105715581Y-99180250D01*
X105720797Y-99201074D01*
X105723947Y-99222309D01*
X105725000Y-99243750D01*
X105725000Y-99756250D01*
X105723947Y-99777691D01*
X105720797Y-99798926D01*
X105715581Y-99819750D01*
X105708349Y-99839962D01*
X105699170Y-99859368D01*
X105688134Y-99877781D01*
X105675346Y-99895024D01*
X105660930Y-99910930D01*
X105645024Y-99925346D01*
X105627781Y-99938134D01*
X105609368Y-99949170D01*
X105589962Y-99958349D01*
X105569750Y-99965581D01*
X105548926Y-99970797D01*
X105527691Y-99973947D01*
X105506250Y-99975000D01*
X105068750Y-99975000D01*
X105047309Y-99973947D01*
X105026074Y-99970797D01*
X105005250Y-99965581D01*
X104985038Y-99958349D01*
X104965632Y-99949170D01*
X104947219Y-99938134D01*
X104929976Y-99925346D01*
X104914070Y-99910930D01*
X104899654Y-99895024D01*
X104886866Y-99877781D01*
X104875830Y-99859368D01*
X104866651Y-99839962D01*
X104859419Y-99819750D01*
X104854203Y-99798926D01*
X104851053Y-99777691D01*
X104850000Y-99756250D01*
X104850000Y-99243750D01*
X104851053Y-99222309D01*
X104854203Y-99201074D01*
X104859419Y-99180250D01*
X104866651Y-99160038D01*
X104875830Y-99140632D01*
X104886866Y-99122219D01*
X104899654Y-99104976D01*
X104914070Y-99089070D01*
X104929976Y-99074654D01*
X104947219Y-99061866D01*
X104965632Y-99050830D01*
X104985038Y-99041651D01*
X105005250Y-99034419D01*
X105026074Y-99029203D01*
X105047309Y-99026053D01*
X105068750Y-99025000D01*
X105506250Y-99025000D01*
X105527691Y-99026053D01*
X105527691Y-99026053D01*
G37*
D12*
X105287500Y-99500000D03*
G04 #@! TD*
D13*
G04 #@! TO.C,Q1*
X101200000Y-100405000D03*
X101200000Y-99135000D03*
X101200000Y-97865000D03*
X101200000Y-96595000D03*
X95800000Y-96595000D03*
X95800000Y-97865000D03*
X95800000Y-99135000D03*
X95800000Y-100405000D03*
G04 #@! TD*
D14*
G04 #@! TO.C,U1*
X101900000Y-102520000D03*
X101900000Y-103170000D03*
X101900000Y-103830000D03*
X101900000Y-104480000D03*
X104100000Y-104480000D03*
X104100000Y-103830000D03*
X104100000Y-103170000D03*
X104100000Y-102520000D03*
G04 #@! TD*
D11*
G04 #@! TO.C,R7*
G36*
X100277691Y-102276053D02*
X100298926Y-102279203D01*
X100319750Y-102284419D01*
X100339962Y-102291651D01*
X100359368Y-102300830D01*
X100377781Y-102311866D01*
X100395024Y-102324654D01*
X100410930Y-102339070D01*
X100425346Y-102354976D01*
X100438134Y-102372219D01*
X100449170Y-102390632D01*
X100458349Y-102410038D01*
X100465581Y-102430250D01*
X100470797Y-102451074D01*
X100473947Y-102472309D01*
X100475000Y-102493750D01*
X100475000Y-102931250D01*
X100473947Y-102952691D01*
X100470797Y-102973926D01*
X100465581Y-102994750D01*
X100458349Y-103014962D01*
X100449170Y-103034368D01*
X100438134Y-103052781D01*
X100425346Y-103070024D01*
X100410930Y-103085930D01*
X100395024Y-103100346D01*
X100377781Y-103113134D01*
X100359368Y-103124170D01*
X100339962Y-103133349D01*
X100319750Y-103140581D01*
X100298926Y-103145797D01*
X100277691Y-103148947D01*
X100256250Y-103150000D01*
X99743750Y-103150000D01*
X99722309Y-103148947D01*
X99701074Y-103145797D01*
X99680250Y-103140581D01*
X99660038Y-103133349D01*
X99640632Y-103124170D01*
X99622219Y-103113134D01*
X99604976Y-103100346D01*
X99589070Y-103085930D01*
X99574654Y-103070024D01*
X99561866Y-103052781D01*
X99550830Y-103034368D01*
X99541651Y-103014962D01*
X99534419Y-102994750D01*
X99529203Y-102973926D01*
X99526053Y-102952691D01*
X99525000Y-102931250D01*
X99525000Y-102493750D01*
X99526053Y-102472309D01*
X99529203Y-102451074D01*
X99534419Y-102430250D01*
X99541651Y-102410038D01*
X99550830Y-102390632D01*
X99561866Y-102372219D01*
X99574654Y-102354976D01*
X99589070Y-102339070D01*
X99604976Y-102324654D01*
X99622219Y-102311866D01*
X99640632Y-102300830D01*
X99660038Y-102291651D01*
X99680250Y-102284419D01*
X99701074Y-102279203D01*
X99722309Y-102276053D01*
X99743750Y-102275000D01*
X100256250Y-102275000D01*
X100277691Y-102276053D01*
X100277691Y-102276053D01*
G37*
D12*
X100000000Y-102712500D03*
D11*
G36*
X100277691Y-103851053D02*
X100298926Y-103854203D01*
X100319750Y-103859419D01*
X100339962Y-103866651D01*
X100359368Y-103875830D01*
X100377781Y-103886866D01*
X100395024Y-103899654D01*
X100410930Y-103914070D01*
X100425346Y-103929976D01*
X100438134Y-103947219D01*
X100449170Y-103965632D01*
X100458349Y-103985038D01*
X100465581Y-104005250D01*
X100470797Y-104026074D01*
X100473947Y-104047309D01*
X100475000Y-104068750D01*
X100475000Y-104506250D01*
X100473947Y-104527691D01*
X100470797Y-104548926D01*
X100465581Y-104569750D01*
X100458349Y-104589962D01*
X100449170Y-104609368D01*
X100438134Y-104627781D01*
X100425346Y-104645024D01*
X100410930Y-104660930D01*
X100395024Y-104675346D01*
X100377781Y-104688134D01*
X100359368Y-104699170D01*
X100339962Y-104708349D01*
X100319750Y-104715581D01*
X100298926Y-104720797D01*
X100277691Y-104723947D01*
X100256250Y-104725000D01*
X99743750Y-104725000D01*
X99722309Y-104723947D01*
X99701074Y-104720797D01*
X99680250Y-104715581D01*
X99660038Y-104708349D01*
X99640632Y-104699170D01*
X99622219Y-104688134D01*
X99604976Y-104675346D01*
X99589070Y-104660930D01*
X99574654Y-104645024D01*
X99561866Y-104627781D01*
X99550830Y-104609368D01*
X99541651Y-104589962D01*
X99534419Y-104569750D01*
X99529203Y-104548926D01*
X99526053Y-104527691D01*
X99525000Y-104506250D01*
X99525000Y-104068750D01*
X99526053Y-104047309D01*
X99529203Y-104026074D01*
X99534419Y-104005250D01*
X99541651Y-103985038D01*
X99550830Y-103965632D01*
X99561866Y-103947219D01*
X99574654Y-103929976D01*
X99589070Y-103914070D01*
X99604976Y-103899654D01*
X99622219Y-103886866D01*
X99640632Y-103875830D01*
X99660038Y-103866651D01*
X99680250Y-103859419D01*
X99701074Y-103854203D01*
X99722309Y-103851053D01*
X99743750Y-103850000D01*
X100256250Y-103850000D01*
X100277691Y-103851053D01*
X100277691Y-103851053D01*
G37*
D12*
X100000000Y-104287500D03*
G04 #@! TD*
D11*
G04 #@! TO.C,R6*
G36*
X98777691Y-103851053D02*
X98798926Y-103854203D01*
X98819750Y-103859419D01*
X98839962Y-103866651D01*
X98859368Y-103875830D01*
X98877781Y-103886866D01*
X98895024Y-103899654D01*
X98910930Y-103914070D01*
X98925346Y-103929976D01*
X98938134Y-103947219D01*
X98949170Y-103965632D01*
X98958349Y-103985038D01*
X98965581Y-104005250D01*
X98970797Y-104026074D01*
X98973947Y-104047309D01*
X98975000Y-104068750D01*
X98975000Y-104506250D01*
X98973947Y-104527691D01*
X98970797Y-104548926D01*
X98965581Y-104569750D01*
X98958349Y-104589962D01*
X98949170Y-104609368D01*
X98938134Y-104627781D01*
X98925346Y-104645024D01*
X98910930Y-104660930D01*
X98895024Y-104675346D01*
X98877781Y-104688134D01*
X98859368Y-104699170D01*
X98839962Y-104708349D01*
X98819750Y-104715581D01*
X98798926Y-104720797D01*
X98777691Y-104723947D01*
X98756250Y-104725000D01*
X98243750Y-104725000D01*
X98222309Y-104723947D01*
X98201074Y-104720797D01*
X98180250Y-104715581D01*
X98160038Y-104708349D01*
X98140632Y-104699170D01*
X98122219Y-104688134D01*
X98104976Y-104675346D01*
X98089070Y-104660930D01*
X98074654Y-104645024D01*
X98061866Y-104627781D01*
X98050830Y-104609368D01*
X98041651Y-104589962D01*
X98034419Y-104569750D01*
X98029203Y-104548926D01*
X98026053Y-104527691D01*
X98025000Y-104506250D01*
X98025000Y-104068750D01*
X98026053Y-104047309D01*
X98029203Y-104026074D01*
X98034419Y-104005250D01*
X98041651Y-103985038D01*
X98050830Y-103965632D01*
X98061866Y-103947219D01*
X98074654Y-103929976D01*
X98089070Y-103914070D01*
X98104976Y-103899654D01*
X98122219Y-103886866D01*
X98140632Y-103875830D01*
X98160038Y-103866651D01*
X98180250Y-103859419D01*
X98201074Y-103854203D01*
X98222309Y-103851053D01*
X98243750Y-103850000D01*
X98756250Y-103850000D01*
X98777691Y-103851053D01*
X98777691Y-103851053D01*
G37*
D12*
X98500000Y-104287500D03*
D11*
G36*
X98777691Y-102276053D02*
X98798926Y-102279203D01*
X98819750Y-102284419D01*
X98839962Y-102291651D01*
X98859368Y-102300830D01*
X98877781Y-102311866D01*
X98895024Y-102324654D01*
X98910930Y-102339070D01*
X98925346Y-102354976D01*
X98938134Y-102372219D01*
X98949170Y-102390632D01*
X98958349Y-102410038D01*
X98965581Y-102430250D01*
X98970797Y-102451074D01*
X98973947Y-102472309D01*
X98975000Y-102493750D01*
X98975000Y-102931250D01*
X98973947Y-102952691D01*
X98970797Y-102973926D01*
X98965581Y-102994750D01*
X98958349Y-103014962D01*
X98949170Y-103034368D01*
X98938134Y-103052781D01*
X98925346Y-103070024D01*
X98910930Y-103085930D01*
X98895024Y-103100346D01*
X98877781Y-103113134D01*
X98859368Y-103124170D01*
X98839962Y-103133349D01*
X98819750Y-103140581D01*
X98798926Y-103145797D01*
X98777691Y-103148947D01*
X98756250Y-103150000D01*
X98243750Y-103150000D01*
X98222309Y-103148947D01*
X98201074Y-103145797D01*
X98180250Y-103140581D01*
X98160038Y-103133349D01*
X98140632Y-103124170D01*
X98122219Y-103113134D01*
X98104976Y-103100346D01*
X98089070Y-103085930D01*
X98074654Y-103070024D01*
X98061866Y-103052781D01*
X98050830Y-103034368D01*
X98041651Y-103014962D01*
X98034419Y-102994750D01*
X98029203Y-102973926D01*
X98026053Y-102952691D01*
X98025000Y-102931250D01*
X98025000Y-102493750D01*
X98026053Y-102472309D01*
X98029203Y-102451074D01*
X98034419Y-102430250D01*
X98041651Y-102410038D01*
X98050830Y-102390632D01*
X98061866Y-102372219D01*
X98074654Y-102354976D01*
X98089070Y-102339070D01*
X98104976Y-102324654D01*
X98122219Y-102311866D01*
X98140632Y-102300830D01*
X98160038Y-102291651D01*
X98180250Y-102284419D01*
X98201074Y-102279203D01*
X98222309Y-102276053D01*
X98243750Y-102275000D01*
X98756250Y-102275000D01*
X98777691Y-102276053D01*
X98777691Y-102276053D01*
G37*
D12*
X98500000Y-102712500D03*
G04 #@! TD*
D11*
G04 #@! TO.C,R5*
G36*
X100527691Y-105526053D02*
X100548926Y-105529203D01*
X100569750Y-105534419D01*
X100589962Y-105541651D01*
X100609368Y-105550830D01*
X100627781Y-105561866D01*
X100645024Y-105574654D01*
X100660930Y-105589070D01*
X100675346Y-105604976D01*
X100688134Y-105622219D01*
X100699170Y-105640632D01*
X100708349Y-105660038D01*
X100715581Y-105680250D01*
X100720797Y-105701074D01*
X100723947Y-105722309D01*
X100725000Y-105743750D01*
X100725000Y-106256250D01*
X100723947Y-106277691D01*
X100720797Y-106298926D01*
X100715581Y-106319750D01*
X100708349Y-106339962D01*
X100699170Y-106359368D01*
X100688134Y-106377781D01*
X100675346Y-106395024D01*
X100660930Y-106410930D01*
X100645024Y-106425346D01*
X100627781Y-106438134D01*
X100609368Y-106449170D01*
X100589962Y-106458349D01*
X100569750Y-106465581D01*
X100548926Y-106470797D01*
X100527691Y-106473947D01*
X100506250Y-106475000D01*
X100068750Y-106475000D01*
X100047309Y-106473947D01*
X100026074Y-106470797D01*
X100005250Y-106465581D01*
X99985038Y-106458349D01*
X99965632Y-106449170D01*
X99947219Y-106438134D01*
X99929976Y-106425346D01*
X99914070Y-106410930D01*
X99899654Y-106395024D01*
X99886866Y-106377781D01*
X99875830Y-106359368D01*
X99866651Y-106339962D01*
X99859419Y-106319750D01*
X99854203Y-106298926D01*
X99851053Y-106277691D01*
X99850000Y-106256250D01*
X99850000Y-105743750D01*
X99851053Y-105722309D01*
X99854203Y-105701074D01*
X99859419Y-105680250D01*
X99866651Y-105660038D01*
X99875830Y-105640632D01*
X99886866Y-105622219D01*
X99899654Y-105604976D01*
X99914070Y-105589070D01*
X99929976Y-105574654D01*
X99947219Y-105561866D01*
X99965632Y-105550830D01*
X99985038Y-105541651D01*
X100005250Y-105534419D01*
X100026074Y-105529203D01*
X100047309Y-105526053D01*
X100068750Y-105525000D01*
X100506250Y-105525000D01*
X100527691Y-105526053D01*
X100527691Y-105526053D01*
G37*
D12*
X100287500Y-106000000D03*
D11*
G36*
X98952691Y-105526053D02*
X98973926Y-105529203D01*
X98994750Y-105534419D01*
X99014962Y-105541651D01*
X99034368Y-105550830D01*
X99052781Y-105561866D01*
X99070024Y-105574654D01*
X99085930Y-105589070D01*
X99100346Y-105604976D01*
X99113134Y-105622219D01*
X99124170Y-105640632D01*
X99133349Y-105660038D01*
X99140581Y-105680250D01*
X99145797Y-105701074D01*
X99148947Y-105722309D01*
X99150000Y-105743750D01*
X99150000Y-106256250D01*
X99148947Y-106277691D01*
X99145797Y-106298926D01*
X99140581Y-106319750D01*
X99133349Y-106339962D01*
X99124170Y-106359368D01*
X99113134Y-106377781D01*
X99100346Y-106395024D01*
X99085930Y-106410930D01*
X99070024Y-106425346D01*
X99052781Y-106438134D01*
X99034368Y-106449170D01*
X99014962Y-106458349D01*
X98994750Y-106465581D01*
X98973926Y-106470797D01*
X98952691Y-106473947D01*
X98931250Y-106475000D01*
X98493750Y-106475000D01*
X98472309Y-106473947D01*
X98451074Y-106470797D01*
X98430250Y-106465581D01*
X98410038Y-106458349D01*
X98390632Y-106449170D01*
X98372219Y-106438134D01*
X98354976Y-106425346D01*
X98339070Y-106410930D01*
X98324654Y-106395024D01*
X98311866Y-106377781D01*
X98300830Y-106359368D01*
X98291651Y-106339962D01*
X98284419Y-106319750D01*
X98279203Y-106298926D01*
X98276053Y-106277691D01*
X98275000Y-106256250D01*
X98275000Y-105743750D01*
X98276053Y-105722309D01*
X98279203Y-105701074D01*
X98284419Y-105680250D01*
X98291651Y-105660038D01*
X98300830Y-105640632D01*
X98311866Y-105622219D01*
X98324654Y-105604976D01*
X98339070Y-105589070D01*
X98354976Y-105574654D01*
X98372219Y-105561866D01*
X98390632Y-105550830D01*
X98410038Y-105541651D01*
X98430250Y-105534419D01*
X98451074Y-105529203D01*
X98472309Y-105526053D01*
X98493750Y-105525000D01*
X98931250Y-105525000D01*
X98952691Y-105526053D01*
X98952691Y-105526053D01*
G37*
D12*
X98712500Y-106000000D03*
G04 #@! TD*
D11*
G04 #@! TO.C,R4*
G36*
X106277691Y-103851053D02*
X106298926Y-103854203D01*
X106319750Y-103859419D01*
X106339962Y-103866651D01*
X106359368Y-103875830D01*
X106377781Y-103886866D01*
X106395024Y-103899654D01*
X106410930Y-103914070D01*
X106425346Y-103929976D01*
X106438134Y-103947219D01*
X106449170Y-103965632D01*
X106458349Y-103985038D01*
X106465581Y-104005250D01*
X106470797Y-104026074D01*
X106473947Y-104047309D01*
X106475000Y-104068750D01*
X106475000Y-104506250D01*
X106473947Y-104527691D01*
X106470797Y-104548926D01*
X106465581Y-104569750D01*
X106458349Y-104589962D01*
X106449170Y-104609368D01*
X106438134Y-104627781D01*
X106425346Y-104645024D01*
X106410930Y-104660930D01*
X106395024Y-104675346D01*
X106377781Y-104688134D01*
X106359368Y-104699170D01*
X106339962Y-104708349D01*
X106319750Y-104715581D01*
X106298926Y-104720797D01*
X106277691Y-104723947D01*
X106256250Y-104725000D01*
X105743750Y-104725000D01*
X105722309Y-104723947D01*
X105701074Y-104720797D01*
X105680250Y-104715581D01*
X105660038Y-104708349D01*
X105640632Y-104699170D01*
X105622219Y-104688134D01*
X105604976Y-104675346D01*
X105589070Y-104660930D01*
X105574654Y-104645024D01*
X105561866Y-104627781D01*
X105550830Y-104609368D01*
X105541651Y-104589962D01*
X105534419Y-104569750D01*
X105529203Y-104548926D01*
X105526053Y-104527691D01*
X105525000Y-104506250D01*
X105525000Y-104068750D01*
X105526053Y-104047309D01*
X105529203Y-104026074D01*
X105534419Y-104005250D01*
X105541651Y-103985038D01*
X105550830Y-103965632D01*
X105561866Y-103947219D01*
X105574654Y-103929976D01*
X105589070Y-103914070D01*
X105604976Y-103899654D01*
X105622219Y-103886866D01*
X105640632Y-103875830D01*
X105660038Y-103866651D01*
X105680250Y-103859419D01*
X105701074Y-103854203D01*
X105722309Y-103851053D01*
X105743750Y-103850000D01*
X106256250Y-103850000D01*
X106277691Y-103851053D01*
X106277691Y-103851053D01*
G37*
D12*
X106000000Y-104287500D03*
D11*
G36*
X106277691Y-102276053D02*
X106298926Y-102279203D01*
X106319750Y-102284419D01*
X106339962Y-102291651D01*
X106359368Y-102300830D01*
X106377781Y-102311866D01*
X106395024Y-102324654D01*
X106410930Y-102339070D01*
X106425346Y-102354976D01*
X106438134Y-102372219D01*
X106449170Y-102390632D01*
X106458349Y-102410038D01*
X106465581Y-102430250D01*
X106470797Y-102451074D01*
X106473947Y-102472309D01*
X106475000Y-102493750D01*
X106475000Y-102931250D01*
X106473947Y-102952691D01*
X106470797Y-102973926D01*
X106465581Y-102994750D01*
X106458349Y-103014962D01*
X106449170Y-103034368D01*
X106438134Y-103052781D01*
X106425346Y-103070024D01*
X106410930Y-103085930D01*
X106395024Y-103100346D01*
X106377781Y-103113134D01*
X106359368Y-103124170D01*
X106339962Y-103133349D01*
X106319750Y-103140581D01*
X106298926Y-103145797D01*
X106277691Y-103148947D01*
X106256250Y-103150000D01*
X105743750Y-103150000D01*
X105722309Y-103148947D01*
X105701074Y-103145797D01*
X105680250Y-103140581D01*
X105660038Y-103133349D01*
X105640632Y-103124170D01*
X105622219Y-103113134D01*
X105604976Y-103100346D01*
X105589070Y-103085930D01*
X105574654Y-103070024D01*
X105561866Y-103052781D01*
X105550830Y-103034368D01*
X105541651Y-103014962D01*
X105534419Y-102994750D01*
X105529203Y-102973926D01*
X105526053Y-102952691D01*
X105525000Y-102931250D01*
X105525000Y-102493750D01*
X105526053Y-102472309D01*
X105529203Y-102451074D01*
X105534419Y-102430250D01*
X105541651Y-102410038D01*
X105550830Y-102390632D01*
X105561866Y-102372219D01*
X105574654Y-102354976D01*
X105589070Y-102339070D01*
X105604976Y-102324654D01*
X105622219Y-102311866D01*
X105640632Y-102300830D01*
X105660038Y-102291651D01*
X105680250Y-102284419D01*
X105701074Y-102279203D01*
X105722309Y-102276053D01*
X105743750Y-102275000D01*
X106256250Y-102275000D01*
X106277691Y-102276053D01*
X106277691Y-102276053D01*
G37*
D12*
X106000000Y-102712500D03*
G04 #@! TD*
D11*
G04 #@! TO.C,R3*
G36*
X105527691Y-97526053D02*
X105548926Y-97529203D01*
X105569750Y-97534419D01*
X105589962Y-97541651D01*
X105609368Y-97550830D01*
X105627781Y-97561866D01*
X105645024Y-97574654D01*
X105660930Y-97589070D01*
X105675346Y-97604976D01*
X105688134Y-97622219D01*
X105699170Y-97640632D01*
X105708349Y-97660038D01*
X105715581Y-97680250D01*
X105720797Y-97701074D01*
X105723947Y-97722309D01*
X105725000Y-97743750D01*
X105725000Y-98256250D01*
X105723947Y-98277691D01*
X105720797Y-98298926D01*
X105715581Y-98319750D01*
X105708349Y-98339962D01*
X105699170Y-98359368D01*
X105688134Y-98377781D01*
X105675346Y-98395024D01*
X105660930Y-98410930D01*
X105645024Y-98425346D01*
X105627781Y-98438134D01*
X105609368Y-98449170D01*
X105589962Y-98458349D01*
X105569750Y-98465581D01*
X105548926Y-98470797D01*
X105527691Y-98473947D01*
X105506250Y-98475000D01*
X105068750Y-98475000D01*
X105047309Y-98473947D01*
X105026074Y-98470797D01*
X105005250Y-98465581D01*
X104985038Y-98458349D01*
X104965632Y-98449170D01*
X104947219Y-98438134D01*
X104929976Y-98425346D01*
X104914070Y-98410930D01*
X104899654Y-98395024D01*
X104886866Y-98377781D01*
X104875830Y-98359368D01*
X104866651Y-98339962D01*
X104859419Y-98319750D01*
X104854203Y-98298926D01*
X104851053Y-98277691D01*
X104850000Y-98256250D01*
X104850000Y-97743750D01*
X104851053Y-97722309D01*
X104854203Y-97701074D01*
X104859419Y-97680250D01*
X104866651Y-97660038D01*
X104875830Y-97640632D01*
X104886866Y-97622219D01*
X104899654Y-97604976D01*
X104914070Y-97589070D01*
X104929976Y-97574654D01*
X104947219Y-97561866D01*
X104965632Y-97550830D01*
X104985038Y-97541651D01*
X105005250Y-97534419D01*
X105026074Y-97529203D01*
X105047309Y-97526053D01*
X105068750Y-97525000D01*
X105506250Y-97525000D01*
X105527691Y-97526053D01*
X105527691Y-97526053D01*
G37*
D12*
X105287500Y-98000000D03*
D11*
G36*
X103952691Y-97526053D02*
X103973926Y-97529203D01*
X103994750Y-97534419D01*
X104014962Y-97541651D01*
X104034368Y-97550830D01*
X104052781Y-97561866D01*
X104070024Y-97574654D01*
X104085930Y-97589070D01*
X104100346Y-97604976D01*
X104113134Y-97622219D01*
X104124170Y-97640632D01*
X104133349Y-97660038D01*
X104140581Y-97680250D01*
X104145797Y-97701074D01*
X104148947Y-97722309D01*
X104150000Y-97743750D01*
X104150000Y-98256250D01*
X104148947Y-98277691D01*
X104145797Y-98298926D01*
X104140581Y-98319750D01*
X104133349Y-98339962D01*
X104124170Y-98359368D01*
X104113134Y-98377781D01*
X104100346Y-98395024D01*
X104085930Y-98410930D01*
X104070024Y-98425346D01*
X104052781Y-98438134D01*
X104034368Y-98449170D01*
X104014962Y-98458349D01*
X103994750Y-98465581D01*
X103973926Y-98470797D01*
X103952691Y-98473947D01*
X103931250Y-98475000D01*
X103493750Y-98475000D01*
X103472309Y-98473947D01*
X103451074Y-98470797D01*
X103430250Y-98465581D01*
X103410038Y-98458349D01*
X103390632Y-98449170D01*
X103372219Y-98438134D01*
X103354976Y-98425346D01*
X103339070Y-98410930D01*
X103324654Y-98395024D01*
X103311866Y-98377781D01*
X103300830Y-98359368D01*
X103291651Y-98339962D01*
X103284419Y-98319750D01*
X103279203Y-98298926D01*
X103276053Y-98277691D01*
X103275000Y-98256250D01*
X103275000Y-97743750D01*
X103276053Y-97722309D01*
X103279203Y-97701074D01*
X103284419Y-97680250D01*
X103291651Y-97660038D01*
X103300830Y-97640632D01*
X103311866Y-97622219D01*
X103324654Y-97604976D01*
X103339070Y-97589070D01*
X103354976Y-97574654D01*
X103372219Y-97561866D01*
X103390632Y-97550830D01*
X103410038Y-97541651D01*
X103430250Y-97534419D01*
X103451074Y-97529203D01*
X103472309Y-97526053D01*
X103493750Y-97525000D01*
X103931250Y-97525000D01*
X103952691Y-97526053D01*
X103952691Y-97526053D01*
G37*
D12*
X103712500Y-98000000D03*
G04 #@! TD*
D11*
G04 #@! TO.C,R2*
G36*
X103952691Y-96026053D02*
X103973926Y-96029203D01*
X103994750Y-96034419D01*
X104014962Y-96041651D01*
X104034368Y-96050830D01*
X104052781Y-96061866D01*
X104070024Y-96074654D01*
X104085930Y-96089070D01*
X104100346Y-96104976D01*
X104113134Y-96122219D01*
X104124170Y-96140632D01*
X104133349Y-96160038D01*
X104140581Y-96180250D01*
X104145797Y-96201074D01*
X104148947Y-96222309D01*
X104150000Y-96243750D01*
X104150000Y-96756250D01*
X104148947Y-96777691D01*
X104145797Y-96798926D01*
X104140581Y-96819750D01*
X104133349Y-96839962D01*
X104124170Y-96859368D01*
X104113134Y-96877781D01*
X104100346Y-96895024D01*
X104085930Y-96910930D01*
X104070024Y-96925346D01*
X104052781Y-96938134D01*
X104034368Y-96949170D01*
X104014962Y-96958349D01*
X103994750Y-96965581D01*
X103973926Y-96970797D01*
X103952691Y-96973947D01*
X103931250Y-96975000D01*
X103493750Y-96975000D01*
X103472309Y-96973947D01*
X103451074Y-96970797D01*
X103430250Y-96965581D01*
X103410038Y-96958349D01*
X103390632Y-96949170D01*
X103372219Y-96938134D01*
X103354976Y-96925346D01*
X103339070Y-96910930D01*
X103324654Y-96895024D01*
X103311866Y-96877781D01*
X103300830Y-96859368D01*
X103291651Y-96839962D01*
X103284419Y-96819750D01*
X103279203Y-96798926D01*
X103276053Y-96777691D01*
X103275000Y-96756250D01*
X103275000Y-96243750D01*
X103276053Y-96222309D01*
X103279203Y-96201074D01*
X103284419Y-96180250D01*
X103291651Y-96160038D01*
X103300830Y-96140632D01*
X103311866Y-96122219D01*
X103324654Y-96104976D01*
X103339070Y-96089070D01*
X103354976Y-96074654D01*
X103372219Y-96061866D01*
X103390632Y-96050830D01*
X103410038Y-96041651D01*
X103430250Y-96034419D01*
X103451074Y-96029203D01*
X103472309Y-96026053D01*
X103493750Y-96025000D01*
X103931250Y-96025000D01*
X103952691Y-96026053D01*
X103952691Y-96026053D01*
G37*
D12*
X103712500Y-96500000D03*
D11*
G36*
X105527691Y-96026053D02*
X105548926Y-96029203D01*
X105569750Y-96034419D01*
X105589962Y-96041651D01*
X105609368Y-96050830D01*
X105627781Y-96061866D01*
X105645024Y-96074654D01*
X105660930Y-96089070D01*
X105675346Y-96104976D01*
X105688134Y-96122219D01*
X105699170Y-96140632D01*
X105708349Y-96160038D01*
X105715581Y-96180250D01*
X105720797Y-96201074D01*
X105723947Y-96222309D01*
X105725000Y-96243750D01*
X105725000Y-96756250D01*
X105723947Y-96777691D01*
X105720797Y-96798926D01*
X105715581Y-96819750D01*
X105708349Y-96839962D01*
X105699170Y-96859368D01*
X105688134Y-96877781D01*
X105675346Y-96895024D01*
X105660930Y-96910930D01*
X105645024Y-96925346D01*
X105627781Y-96938134D01*
X105609368Y-96949170D01*
X105589962Y-96958349D01*
X105569750Y-96965581D01*
X105548926Y-96970797D01*
X105527691Y-96973947D01*
X105506250Y-96975000D01*
X105068750Y-96975000D01*
X105047309Y-96973947D01*
X105026074Y-96970797D01*
X105005250Y-96965581D01*
X104985038Y-96958349D01*
X104965632Y-96949170D01*
X104947219Y-96938134D01*
X104929976Y-96925346D01*
X104914070Y-96910930D01*
X104899654Y-96895024D01*
X104886866Y-96877781D01*
X104875830Y-96859368D01*
X104866651Y-96839962D01*
X104859419Y-96819750D01*
X104854203Y-96798926D01*
X104851053Y-96777691D01*
X104850000Y-96756250D01*
X104850000Y-96243750D01*
X104851053Y-96222309D01*
X104854203Y-96201074D01*
X104859419Y-96180250D01*
X104866651Y-96160038D01*
X104875830Y-96140632D01*
X104886866Y-96122219D01*
X104899654Y-96104976D01*
X104914070Y-96089070D01*
X104929976Y-96074654D01*
X104947219Y-96061866D01*
X104965632Y-96050830D01*
X104985038Y-96041651D01*
X105005250Y-96034419D01*
X105026074Y-96029203D01*
X105047309Y-96026053D01*
X105068750Y-96025000D01*
X105506250Y-96025000D01*
X105527691Y-96026053D01*
X105527691Y-96026053D01*
G37*
D12*
X105287500Y-96500000D03*
G04 #@! TD*
D11*
G04 #@! TO.C,R1*
G36*
X103952691Y-100526053D02*
X103973926Y-100529203D01*
X103994750Y-100534419D01*
X104014962Y-100541651D01*
X104034368Y-100550830D01*
X104052781Y-100561866D01*
X104070024Y-100574654D01*
X104085930Y-100589070D01*
X104100346Y-100604976D01*
X104113134Y-100622219D01*
X104124170Y-100640632D01*
X104133349Y-100660038D01*
X104140581Y-100680250D01*
X104145797Y-100701074D01*
X104148947Y-100722309D01*
X104150000Y-100743750D01*
X104150000Y-101256250D01*
X104148947Y-101277691D01*
X104145797Y-101298926D01*
X104140581Y-101319750D01*
X104133349Y-101339962D01*
X104124170Y-101359368D01*
X104113134Y-101377781D01*
X104100346Y-101395024D01*
X104085930Y-101410930D01*
X104070024Y-101425346D01*
X104052781Y-101438134D01*
X104034368Y-101449170D01*
X104014962Y-101458349D01*
X103994750Y-101465581D01*
X103973926Y-101470797D01*
X103952691Y-101473947D01*
X103931250Y-101475000D01*
X103493750Y-101475000D01*
X103472309Y-101473947D01*
X103451074Y-101470797D01*
X103430250Y-101465581D01*
X103410038Y-101458349D01*
X103390632Y-101449170D01*
X103372219Y-101438134D01*
X103354976Y-101425346D01*
X103339070Y-101410930D01*
X103324654Y-101395024D01*
X103311866Y-101377781D01*
X103300830Y-101359368D01*
X103291651Y-101339962D01*
X103284419Y-101319750D01*
X103279203Y-101298926D01*
X103276053Y-101277691D01*
X103275000Y-101256250D01*
X103275000Y-100743750D01*
X103276053Y-100722309D01*
X103279203Y-100701074D01*
X103284419Y-100680250D01*
X103291651Y-100660038D01*
X103300830Y-100640632D01*
X103311866Y-100622219D01*
X103324654Y-100604976D01*
X103339070Y-100589070D01*
X103354976Y-100574654D01*
X103372219Y-100561866D01*
X103390632Y-100550830D01*
X103410038Y-100541651D01*
X103430250Y-100534419D01*
X103451074Y-100529203D01*
X103472309Y-100526053D01*
X103493750Y-100525000D01*
X103931250Y-100525000D01*
X103952691Y-100526053D01*
X103952691Y-100526053D01*
G37*
D12*
X103712500Y-101000000D03*
D11*
G36*
X105527691Y-100526053D02*
X105548926Y-100529203D01*
X105569750Y-100534419D01*
X105589962Y-100541651D01*
X105609368Y-100550830D01*
X105627781Y-100561866D01*
X105645024Y-100574654D01*
X105660930Y-100589070D01*
X105675346Y-100604976D01*
X105688134Y-100622219D01*
X105699170Y-100640632D01*
X105708349Y-100660038D01*
X105715581Y-100680250D01*
X105720797Y-100701074D01*
X105723947Y-100722309D01*
X105725000Y-100743750D01*
X105725000Y-101256250D01*
X105723947Y-101277691D01*
X105720797Y-101298926D01*
X105715581Y-101319750D01*
X105708349Y-101339962D01*
X105699170Y-101359368D01*
X105688134Y-101377781D01*
X105675346Y-101395024D01*
X105660930Y-101410930D01*
X105645024Y-101425346D01*
X105627781Y-101438134D01*
X105609368Y-101449170D01*
X105589962Y-101458349D01*
X105569750Y-101465581D01*
X105548926Y-101470797D01*
X105527691Y-101473947D01*
X105506250Y-101475000D01*
X105068750Y-101475000D01*
X105047309Y-101473947D01*
X105026074Y-101470797D01*
X105005250Y-101465581D01*
X104985038Y-101458349D01*
X104965632Y-101449170D01*
X104947219Y-101438134D01*
X104929976Y-101425346D01*
X104914070Y-101410930D01*
X104899654Y-101395024D01*
X104886866Y-101377781D01*
X104875830Y-101359368D01*
X104866651Y-101339962D01*
X104859419Y-101319750D01*
X104854203Y-101298926D01*
X104851053Y-101277691D01*
X104850000Y-101256250D01*
X104850000Y-100743750D01*
X104851053Y-100722309D01*
X104854203Y-100701074D01*
X104859419Y-100680250D01*
X104866651Y-100660038D01*
X104875830Y-100640632D01*
X104886866Y-100622219D01*
X104899654Y-100604976D01*
X104914070Y-100589070D01*
X104929976Y-100574654D01*
X104947219Y-100561866D01*
X104965632Y-100550830D01*
X104985038Y-100541651D01*
X105005250Y-100534419D01*
X105026074Y-100529203D01*
X105047309Y-100526053D01*
X105068750Y-100525000D01*
X105506250Y-100525000D01*
X105527691Y-100526053D01*
X105527691Y-100526053D01*
G37*
D12*
X105287500Y-101000000D03*
G04 #@! TD*
M02*
