G04 #@! TF.GenerationSoftware,KiCad,Pcbnew,5.0.0-fee4fd1~66~ubuntu16.04.1*
G04 #@! TF.CreationDate,2018-09-22T16:18:32+02:00*
G04 #@! TF.ProjectId,mav_ovp,6D61765F6F76702E6B696361645F7063,rev?*
G04 #@! TF.SameCoordinates,Original*
G04 #@! TF.FileFunction,Copper,L2,Bot,Signal*
G04 #@! TF.FilePolarity,Positive*
%FSLAX46Y46*%
G04 Gerber Fmt 4.6, Leading zero omitted, Abs format (unit mm)*
G04 Created by KiCad (PCBNEW 5.0.0-fee4fd1~66~ubuntu16.04.1) date Sat Sep 22 16:18:32 2018*
%MOMM*%
%LPD*%
G01*
G04 APERTURE LIST*
G04 #@! TA.AperFunction,ComponentPad*
%ADD10R,1.700000X1.700000*%
G04 #@! TD*
G04 #@! TA.AperFunction,ViaPad*
%ADD11C,0.800000*%
G04 #@! TD*
G04 #@! TA.AperFunction,Conductor*
%ADD12C,0.200000*%
G04 #@! TD*
G04 APERTURE END LIST*
D10*
G04 #@! TO.P,J4,1*
G04 #@! TO.N,GND*
X104500000Y-89000000D03*
G04 #@! TD*
G04 #@! TO.P,J3,1*
G04 #@! TO.N,GND*
X104500000Y-107000000D03*
G04 #@! TD*
G04 #@! TO.P,J2,1*
G04 #@! TO.N,/VOUT*
X95500000Y-89000000D03*
G04 #@! TD*
G04 #@! TO.P,J1,1*
G04 #@! TO.N,/VIN*
X95500000Y-107000000D03*
G04 #@! TD*
D11*
G04 #@! TO.N,GND*
X103000000Y-90000000D03*
X102800000Y-93700000D03*
X104500000Y-105400000D03*
X101700000Y-107200000D03*
X100100000Y-93100000D03*
X100000000Y-90000000D03*
X101700000Y-105299990D03*
G04 #@! TD*
D12*
G04 #@! TO.N,GND*
G36*
X105125000Y-107625000D02*
X96655877Y-107625000D01*
X96655877Y-106150000D01*
X96632593Y-106032946D01*
X96566288Y-105933712D01*
X96467054Y-105867407D01*
X96350000Y-105844123D01*
X94875000Y-105844123D01*
X94875000Y-90155877D01*
X96350000Y-90155877D01*
X96467054Y-90132593D01*
X96566288Y-90066288D01*
X96632593Y-89967054D01*
X96655877Y-89850000D01*
X96655877Y-88375000D01*
X105125001Y-88375000D01*
X105125000Y-107625000D01*
X105125000Y-107625000D01*
G37*
X105125000Y-107625000D02*
X96655877Y-107625000D01*
X96655877Y-106150000D01*
X96632593Y-106032946D01*
X96566288Y-105933712D01*
X96467054Y-105867407D01*
X96350000Y-105844123D01*
X94875000Y-105844123D01*
X94875000Y-90155877D01*
X96350000Y-90155877D01*
X96467054Y-90132593D01*
X96566288Y-90066288D01*
X96632593Y-89967054D01*
X96655877Y-89850000D01*
X96655877Y-88375000D01*
X105125001Y-88375000D01*
X105125000Y-107625000D01*
G04 #@! TD*
M02*
