G04 #@! TF.GenerationSoftware,KiCad,Pcbnew,5.0.0-fee4fd1~66~ubuntu16.04.1*
G04 #@! TF.CreationDate,2018-09-22T16:18:32+02:00*
G04 #@! TF.ProjectId,mav_ovp,6D61765F6F76702E6B696361645F7063,rev?*
G04 #@! TF.SameCoordinates,Original*
G04 #@! TF.FileFunction,Soldermask,Top*
G04 #@! TF.FilePolarity,Negative*
%FSLAX46Y46*%
G04 Gerber Fmt 4.6, Leading zero omitted, Abs format (unit mm)*
G04 Created by KiCad (PCBNEW 5.0.0-fee4fd1~66~ubuntu16.04.1) date Sat Sep 22 16:18:32 2018*
%MOMM*%
%LPD*%
G01*
G04 APERTURE LIST*
%ADD10R,1.260000X0.600000*%
%ADD11R,3.700000X1.800000*%
%ADD12C,0.100000*%
%ADD13C,1.075000*%
%ADD14R,1.900000X1.900000*%
%ADD15R,1.750000X0.800000*%
G04 APERTURE END LIST*
D10*
G04 #@! TO.C,U1*
X101900000Y-102520000D03*
X101900000Y-103170000D03*
X101900000Y-103830000D03*
X101900000Y-104480000D03*
X104100000Y-104480000D03*
X104100000Y-103830000D03*
X104100000Y-103170000D03*
X104100000Y-102520000D03*
G04 #@! TD*
D11*
G04 #@! TO.C,C1*
X97300000Y-92100000D03*
X102700000Y-92100000D03*
G04 #@! TD*
D12*
G04 #@! TO.C,C2*
G36*
X103207592Y-100426294D02*
X103233681Y-100430164D01*
X103259264Y-100436572D01*
X103284096Y-100445457D01*
X103307938Y-100456734D01*
X103330560Y-100470293D01*
X103351743Y-100486003D01*
X103371285Y-100503715D01*
X103388997Y-100523257D01*
X103404707Y-100544440D01*
X103418266Y-100567062D01*
X103429543Y-100590904D01*
X103438428Y-100615736D01*
X103444836Y-100641319D01*
X103448706Y-100667408D01*
X103450000Y-100693750D01*
X103450000Y-101306250D01*
X103448706Y-101332592D01*
X103444836Y-101358681D01*
X103438428Y-101384264D01*
X103429543Y-101409096D01*
X103418266Y-101432938D01*
X103404707Y-101455560D01*
X103388997Y-101476743D01*
X103371285Y-101496285D01*
X103351743Y-101513997D01*
X103330560Y-101529707D01*
X103307938Y-101543266D01*
X103284096Y-101554543D01*
X103259264Y-101563428D01*
X103233681Y-101569836D01*
X103207592Y-101573706D01*
X103181250Y-101575000D01*
X102643750Y-101575000D01*
X102617408Y-101573706D01*
X102591319Y-101569836D01*
X102565736Y-101563428D01*
X102540904Y-101554543D01*
X102517062Y-101543266D01*
X102494440Y-101529707D01*
X102473257Y-101513997D01*
X102453715Y-101496285D01*
X102436003Y-101476743D01*
X102420293Y-101455560D01*
X102406734Y-101432938D01*
X102395457Y-101409096D01*
X102386572Y-101384264D01*
X102380164Y-101358681D01*
X102376294Y-101332592D01*
X102375000Y-101306250D01*
X102375000Y-100693750D01*
X102376294Y-100667408D01*
X102380164Y-100641319D01*
X102386572Y-100615736D01*
X102395457Y-100590904D01*
X102406734Y-100567062D01*
X102420293Y-100544440D01*
X102436003Y-100523257D01*
X102453715Y-100503715D01*
X102473257Y-100486003D01*
X102494440Y-100470293D01*
X102517062Y-100456734D01*
X102540904Y-100445457D01*
X102565736Y-100436572D01*
X102591319Y-100430164D01*
X102617408Y-100426294D01*
X102643750Y-100425000D01*
X103181250Y-100425000D01*
X103207592Y-100426294D01*
X103207592Y-100426294D01*
G37*
D13*
X102912500Y-101000000D03*
D12*
G36*
X104782592Y-100426294D02*
X104808681Y-100430164D01*
X104834264Y-100436572D01*
X104859096Y-100445457D01*
X104882938Y-100456734D01*
X104905560Y-100470293D01*
X104926743Y-100486003D01*
X104946285Y-100503715D01*
X104963997Y-100523257D01*
X104979707Y-100544440D01*
X104993266Y-100567062D01*
X105004543Y-100590904D01*
X105013428Y-100615736D01*
X105019836Y-100641319D01*
X105023706Y-100667408D01*
X105025000Y-100693750D01*
X105025000Y-101306250D01*
X105023706Y-101332592D01*
X105019836Y-101358681D01*
X105013428Y-101384264D01*
X105004543Y-101409096D01*
X104993266Y-101432938D01*
X104979707Y-101455560D01*
X104963997Y-101476743D01*
X104946285Y-101496285D01*
X104926743Y-101513997D01*
X104905560Y-101529707D01*
X104882938Y-101543266D01*
X104859096Y-101554543D01*
X104834264Y-101563428D01*
X104808681Y-101569836D01*
X104782592Y-101573706D01*
X104756250Y-101575000D01*
X104218750Y-101575000D01*
X104192408Y-101573706D01*
X104166319Y-101569836D01*
X104140736Y-101563428D01*
X104115904Y-101554543D01*
X104092062Y-101543266D01*
X104069440Y-101529707D01*
X104048257Y-101513997D01*
X104028715Y-101496285D01*
X104011003Y-101476743D01*
X103995293Y-101455560D01*
X103981734Y-101432938D01*
X103970457Y-101409096D01*
X103961572Y-101384264D01*
X103955164Y-101358681D01*
X103951294Y-101332592D01*
X103950000Y-101306250D01*
X103950000Y-100693750D01*
X103951294Y-100667408D01*
X103955164Y-100641319D01*
X103961572Y-100615736D01*
X103970457Y-100590904D01*
X103981734Y-100567062D01*
X103995293Y-100544440D01*
X104011003Y-100523257D01*
X104028715Y-100503715D01*
X104048257Y-100486003D01*
X104069440Y-100470293D01*
X104092062Y-100456734D01*
X104115904Y-100445457D01*
X104140736Y-100436572D01*
X104166319Y-100430164D01*
X104192408Y-100426294D01*
X104218750Y-100425000D01*
X104756250Y-100425000D01*
X104782592Y-100426294D01*
X104782592Y-100426294D01*
G37*
D13*
X104487500Y-101000000D03*
G04 #@! TD*
D14*
G04 #@! TO.C,J4*
X104500000Y-89000000D03*
G04 #@! TD*
G04 #@! TO.C,J3*
X104500000Y-107000000D03*
G04 #@! TD*
G04 #@! TO.C,J2*
X95500000Y-89000000D03*
G04 #@! TD*
G04 #@! TO.C,J1*
X95500000Y-107000000D03*
G04 #@! TD*
D15*
G04 #@! TO.C,Q1*
X101200000Y-100405000D03*
X101200000Y-99135000D03*
X101200000Y-97865000D03*
X101200000Y-96595000D03*
X95800000Y-96595000D03*
X95800000Y-97865000D03*
X95800000Y-99135000D03*
X95800000Y-100405000D03*
G04 #@! TD*
D12*
G04 #@! TO.C,R7*
G36*
X100532592Y-103751294D02*
X100558681Y-103755164D01*
X100584264Y-103761572D01*
X100609096Y-103770457D01*
X100632938Y-103781734D01*
X100655560Y-103795293D01*
X100676743Y-103811003D01*
X100696285Y-103828715D01*
X100713997Y-103848257D01*
X100729707Y-103869440D01*
X100743266Y-103892062D01*
X100754543Y-103915904D01*
X100763428Y-103940736D01*
X100769836Y-103966319D01*
X100773706Y-103992408D01*
X100775000Y-104018750D01*
X100775000Y-104556250D01*
X100773706Y-104582592D01*
X100769836Y-104608681D01*
X100763428Y-104634264D01*
X100754543Y-104659096D01*
X100743266Y-104682938D01*
X100729707Y-104705560D01*
X100713997Y-104726743D01*
X100696285Y-104746285D01*
X100676743Y-104763997D01*
X100655560Y-104779707D01*
X100632938Y-104793266D01*
X100609096Y-104804543D01*
X100584264Y-104813428D01*
X100558681Y-104819836D01*
X100532592Y-104823706D01*
X100506250Y-104825000D01*
X99893750Y-104825000D01*
X99867408Y-104823706D01*
X99841319Y-104819836D01*
X99815736Y-104813428D01*
X99790904Y-104804543D01*
X99767062Y-104793266D01*
X99744440Y-104779707D01*
X99723257Y-104763997D01*
X99703715Y-104746285D01*
X99686003Y-104726743D01*
X99670293Y-104705560D01*
X99656734Y-104682938D01*
X99645457Y-104659096D01*
X99636572Y-104634264D01*
X99630164Y-104608681D01*
X99626294Y-104582592D01*
X99625000Y-104556250D01*
X99625000Y-104018750D01*
X99626294Y-103992408D01*
X99630164Y-103966319D01*
X99636572Y-103940736D01*
X99645457Y-103915904D01*
X99656734Y-103892062D01*
X99670293Y-103869440D01*
X99686003Y-103848257D01*
X99703715Y-103828715D01*
X99723257Y-103811003D01*
X99744440Y-103795293D01*
X99767062Y-103781734D01*
X99790904Y-103770457D01*
X99815736Y-103761572D01*
X99841319Y-103755164D01*
X99867408Y-103751294D01*
X99893750Y-103750000D01*
X100506250Y-103750000D01*
X100532592Y-103751294D01*
X100532592Y-103751294D01*
G37*
D13*
X100200000Y-104287500D03*
D12*
G36*
X100532592Y-102176294D02*
X100558681Y-102180164D01*
X100584264Y-102186572D01*
X100609096Y-102195457D01*
X100632938Y-102206734D01*
X100655560Y-102220293D01*
X100676743Y-102236003D01*
X100696285Y-102253715D01*
X100713997Y-102273257D01*
X100729707Y-102294440D01*
X100743266Y-102317062D01*
X100754543Y-102340904D01*
X100763428Y-102365736D01*
X100769836Y-102391319D01*
X100773706Y-102417408D01*
X100775000Y-102443750D01*
X100775000Y-102981250D01*
X100773706Y-103007592D01*
X100769836Y-103033681D01*
X100763428Y-103059264D01*
X100754543Y-103084096D01*
X100743266Y-103107938D01*
X100729707Y-103130560D01*
X100713997Y-103151743D01*
X100696285Y-103171285D01*
X100676743Y-103188997D01*
X100655560Y-103204707D01*
X100632938Y-103218266D01*
X100609096Y-103229543D01*
X100584264Y-103238428D01*
X100558681Y-103244836D01*
X100532592Y-103248706D01*
X100506250Y-103250000D01*
X99893750Y-103250000D01*
X99867408Y-103248706D01*
X99841319Y-103244836D01*
X99815736Y-103238428D01*
X99790904Y-103229543D01*
X99767062Y-103218266D01*
X99744440Y-103204707D01*
X99723257Y-103188997D01*
X99703715Y-103171285D01*
X99686003Y-103151743D01*
X99670293Y-103130560D01*
X99656734Y-103107938D01*
X99645457Y-103084096D01*
X99636572Y-103059264D01*
X99630164Y-103033681D01*
X99626294Y-103007592D01*
X99625000Y-102981250D01*
X99625000Y-102443750D01*
X99626294Y-102417408D01*
X99630164Y-102391319D01*
X99636572Y-102365736D01*
X99645457Y-102340904D01*
X99656734Y-102317062D01*
X99670293Y-102294440D01*
X99686003Y-102273257D01*
X99703715Y-102253715D01*
X99723257Y-102236003D01*
X99744440Y-102220293D01*
X99767062Y-102206734D01*
X99790904Y-102195457D01*
X99815736Y-102186572D01*
X99841319Y-102180164D01*
X99867408Y-102176294D01*
X99893750Y-102175000D01*
X100506250Y-102175000D01*
X100532592Y-102176294D01*
X100532592Y-102176294D01*
G37*
D13*
X100200000Y-102712500D03*
G04 #@! TD*
D12*
G04 #@! TO.C,R6*
G36*
X99032592Y-103751294D02*
X99058681Y-103755164D01*
X99084264Y-103761572D01*
X99109096Y-103770457D01*
X99132938Y-103781734D01*
X99155560Y-103795293D01*
X99176743Y-103811003D01*
X99196285Y-103828715D01*
X99213997Y-103848257D01*
X99229707Y-103869440D01*
X99243266Y-103892062D01*
X99254543Y-103915904D01*
X99263428Y-103940736D01*
X99269836Y-103966319D01*
X99273706Y-103992408D01*
X99275000Y-104018750D01*
X99275000Y-104556250D01*
X99273706Y-104582592D01*
X99269836Y-104608681D01*
X99263428Y-104634264D01*
X99254543Y-104659096D01*
X99243266Y-104682938D01*
X99229707Y-104705560D01*
X99213997Y-104726743D01*
X99196285Y-104746285D01*
X99176743Y-104763997D01*
X99155560Y-104779707D01*
X99132938Y-104793266D01*
X99109096Y-104804543D01*
X99084264Y-104813428D01*
X99058681Y-104819836D01*
X99032592Y-104823706D01*
X99006250Y-104825000D01*
X98393750Y-104825000D01*
X98367408Y-104823706D01*
X98341319Y-104819836D01*
X98315736Y-104813428D01*
X98290904Y-104804543D01*
X98267062Y-104793266D01*
X98244440Y-104779707D01*
X98223257Y-104763997D01*
X98203715Y-104746285D01*
X98186003Y-104726743D01*
X98170293Y-104705560D01*
X98156734Y-104682938D01*
X98145457Y-104659096D01*
X98136572Y-104634264D01*
X98130164Y-104608681D01*
X98126294Y-104582592D01*
X98125000Y-104556250D01*
X98125000Y-104018750D01*
X98126294Y-103992408D01*
X98130164Y-103966319D01*
X98136572Y-103940736D01*
X98145457Y-103915904D01*
X98156734Y-103892062D01*
X98170293Y-103869440D01*
X98186003Y-103848257D01*
X98203715Y-103828715D01*
X98223257Y-103811003D01*
X98244440Y-103795293D01*
X98267062Y-103781734D01*
X98290904Y-103770457D01*
X98315736Y-103761572D01*
X98341319Y-103755164D01*
X98367408Y-103751294D01*
X98393750Y-103750000D01*
X99006250Y-103750000D01*
X99032592Y-103751294D01*
X99032592Y-103751294D01*
G37*
D13*
X98700000Y-104287500D03*
D12*
G36*
X99032592Y-102176294D02*
X99058681Y-102180164D01*
X99084264Y-102186572D01*
X99109096Y-102195457D01*
X99132938Y-102206734D01*
X99155560Y-102220293D01*
X99176743Y-102236003D01*
X99196285Y-102253715D01*
X99213997Y-102273257D01*
X99229707Y-102294440D01*
X99243266Y-102317062D01*
X99254543Y-102340904D01*
X99263428Y-102365736D01*
X99269836Y-102391319D01*
X99273706Y-102417408D01*
X99275000Y-102443750D01*
X99275000Y-102981250D01*
X99273706Y-103007592D01*
X99269836Y-103033681D01*
X99263428Y-103059264D01*
X99254543Y-103084096D01*
X99243266Y-103107938D01*
X99229707Y-103130560D01*
X99213997Y-103151743D01*
X99196285Y-103171285D01*
X99176743Y-103188997D01*
X99155560Y-103204707D01*
X99132938Y-103218266D01*
X99109096Y-103229543D01*
X99084264Y-103238428D01*
X99058681Y-103244836D01*
X99032592Y-103248706D01*
X99006250Y-103250000D01*
X98393750Y-103250000D01*
X98367408Y-103248706D01*
X98341319Y-103244836D01*
X98315736Y-103238428D01*
X98290904Y-103229543D01*
X98267062Y-103218266D01*
X98244440Y-103204707D01*
X98223257Y-103188997D01*
X98203715Y-103171285D01*
X98186003Y-103151743D01*
X98170293Y-103130560D01*
X98156734Y-103107938D01*
X98145457Y-103084096D01*
X98136572Y-103059264D01*
X98130164Y-103033681D01*
X98126294Y-103007592D01*
X98125000Y-102981250D01*
X98125000Y-102443750D01*
X98126294Y-102417408D01*
X98130164Y-102391319D01*
X98136572Y-102365736D01*
X98145457Y-102340904D01*
X98156734Y-102317062D01*
X98170293Y-102294440D01*
X98186003Y-102273257D01*
X98203715Y-102253715D01*
X98223257Y-102236003D01*
X98244440Y-102220293D01*
X98267062Y-102206734D01*
X98290904Y-102195457D01*
X98315736Y-102186572D01*
X98341319Y-102180164D01*
X98367408Y-102176294D01*
X98393750Y-102175000D01*
X99006250Y-102175000D01*
X99032592Y-102176294D01*
X99032592Y-102176294D01*
G37*
D13*
X98700000Y-102712500D03*
G04 #@! TD*
D12*
G04 #@! TO.C,R5*
G36*
X99032592Y-106751294D02*
X99058681Y-106755164D01*
X99084264Y-106761572D01*
X99109096Y-106770457D01*
X99132938Y-106781734D01*
X99155560Y-106795293D01*
X99176743Y-106811003D01*
X99196285Y-106828715D01*
X99213997Y-106848257D01*
X99229707Y-106869440D01*
X99243266Y-106892062D01*
X99254543Y-106915904D01*
X99263428Y-106940736D01*
X99269836Y-106966319D01*
X99273706Y-106992408D01*
X99275000Y-107018750D01*
X99275000Y-107556250D01*
X99273706Y-107582592D01*
X99269836Y-107608681D01*
X99263428Y-107634264D01*
X99254543Y-107659096D01*
X99243266Y-107682938D01*
X99229707Y-107705560D01*
X99213997Y-107726743D01*
X99196285Y-107746285D01*
X99176743Y-107763997D01*
X99155560Y-107779707D01*
X99132938Y-107793266D01*
X99109096Y-107804543D01*
X99084264Y-107813428D01*
X99058681Y-107819836D01*
X99032592Y-107823706D01*
X99006250Y-107825000D01*
X98393750Y-107825000D01*
X98367408Y-107823706D01*
X98341319Y-107819836D01*
X98315736Y-107813428D01*
X98290904Y-107804543D01*
X98267062Y-107793266D01*
X98244440Y-107779707D01*
X98223257Y-107763997D01*
X98203715Y-107746285D01*
X98186003Y-107726743D01*
X98170293Y-107705560D01*
X98156734Y-107682938D01*
X98145457Y-107659096D01*
X98136572Y-107634264D01*
X98130164Y-107608681D01*
X98126294Y-107582592D01*
X98125000Y-107556250D01*
X98125000Y-107018750D01*
X98126294Y-106992408D01*
X98130164Y-106966319D01*
X98136572Y-106940736D01*
X98145457Y-106915904D01*
X98156734Y-106892062D01*
X98170293Y-106869440D01*
X98186003Y-106848257D01*
X98203715Y-106828715D01*
X98223257Y-106811003D01*
X98244440Y-106795293D01*
X98267062Y-106781734D01*
X98290904Y-106770457D01*
X98315736Y-106761572D01*
X98341319Y-106755164D01*
X98367408Y-106751294D01*
X98393750Y-106750000D01*
X99006250Y-106750000D01*
X99032592Y-106751294D01*
X99032592Y-106751294D01*
G37*
D13*
X98700000Y-107287500D03*
D12*
G36*
X99032592Y-105176294D02*
X99058681Y-105180164D01*
X99084264Y-105186572D01*
X99109096Y-105195457D01*
X99132938Y-105206734D01*
X99155560Y-105220293D01*
X99176743Y-105236003D01*
X99196285Y-105253715D01*
X99213997Y-105273257D01*
X99229707Y-105294440D01*
X99243266Y-105317062D01*
X99254543Y-105340904D01*
X99263428Y-105365736D01*
X99269836Y-105391319D01*
X99273706Y-105417408D01*
X99275000Y-105443750D01*
X99275000Y-105981250D01*
X99273706Y-106007592D01*
X99269836Y-106033681D01*
X99263428Y-106059264D01*
X99254543Y-106084096D01*
X99243266Y-106107938D01*
X99229707Y-106130560D01*
X99213997Y-106151743D01*
X99196285Y-106171285D01*
X99176743Y-106188997D01*
X99155560Y-106204707D01*
X99132938Y-106218266D01*
X99109096Y-106229543D01*
X99084264Y-106238428D01*
X99058681Y-106244836D01*
X99032592Y-106248706D01*
X99006250Y-106250000D01*
X98393750Y-106250000D01*
X98367408Y-106248706D01*
X98341319Y-106244836D01*
X98315736Y-106238428D01*
X98290904Y-106229543D01*
X98267062Y-106218266D01*
X98244440Y-106204707D01*
X98223257Y-106188997D01*
X98203715Y-106171285D01*
X98186003Y-106151743D01*
X98170293Y-106130560D01*
X98156734Y-106107938D01*
X98145457Y-106084096D01*
X98136572Y-106059264D01*
X98130164Y-106033681D01*
X98126294Y-106007592D01*
X98125000Y-105981250D01*
X98125000Y-105443750D01*
X98126294Y-105417408D01*
X98130164Y-105391319D01*
X98136572Y-105365736D01*
X98145457Y-105340904D01*
X98156734Y-105317062D01*
X98170293Y-105294440D01*
X98186003Y-105273257D01*
X98203715Y-105253715D01*
X98223257Y-105236003D01*
X98244440Y-105220293D01*
X98267062Y-105206734D01*
X98290904Y-105195457D01*
X98315736Y-105186572D01*
X98341319Y-105180164D01*
X98367408Y-105176294D01*
X98393750Y-105175000D01*
X99006250Y-105175000D01*
X99032592Y-105176294D01*
X99032592Y-105176294D01*
G37*
D13*
X98700000Y-105712500D03*
G04 #@! TD*
D12*
G04 #@! TO.C,R4*
G36*
X100732592Y-106751294D02*
X100758681Y-106755164D01*
X100784264Y-106761572D01*
X100809096Y-106770457D01*
X100832938Y-106781734D01*
X100855560Y-106795293D01*
X100876743Y-106811003D01*
X100896285Y-106828715D01*
X100913997Y-106848257D01*
X100929707Y-106869440D01*
X100943266Y-106892062D01*
X100954543Y-106915904D01*
X100963428Y-106940736D01*
X100969836Y-106966319D01*
X100973706Y-106992408D01*
X100975000Y-107018750D01*
X100975000Y-107556250D01*
X100973706Y-107582592D01*
X100969836Y-107608681D01*
X100963428Y-107634264D01*
X100954543Y-107659096D01*
X100943266Y-107682938D01*
X100929707Y-107705560D01*
X100913997Y-107726743D01*
X100896285Y-107746285D01*
X100876743Y-107763997D01*
X100855560Y-107779707D01*
X100832938Y-107793266D01*
X100809096Y-107804543D01*
X100784264Y-107813428D01*
X100758681Y-107819836D01*
X100732592Y-107823706D01*
X100706250Y-107825000D01*
X100093750Y-107825000D01*
X100067408Y-107823706D01*
X100041319Y-107819836D01*
X100015736Y-107813428D01*
X99990904Y-107804543D01*
X99967062Y-107793266D01*
X99944440Y-107779707D01*
X99923257Y-107763997D01*
X99903715Y-107746285D01*
X99886003Y-107726743D01*
X99870293Y-107705560D01*
X99856734Y-107682938D01*
X99845457Y-107659096D01*
X99836572Y-107634264D01*
X99830164Y-107608681D01*
X99826294Y-107582592D01*
X99825000Y-107556250D01*
X99825000Y-107018750D01*
X99826294Y-106992408D01*
X99830164Y-106966319D01*
X99836572Y-106940736D01*
X99845457Y-106915904D01*
X99856734Y-106892062D01*
X99870293Y-106869440D01*
X99886003Y-106848257D01*
X99903715Y-106828715D01*
X99923257Y-106811003D01*
X99944440Y-106795293D01*
X99967062Y-106781734D01*
X99990904Y-106770457D01*
X100015736Y-106761572D01*
X100041319Y-106755164D01*
X100067408Y-106751294D01*
X100093750Y-106750000D01*
X100706250Y-106750000D01*
X100732592Y-106751294D01*
X100732592Y-106751294D01*
G37*
D13*
X100400000Y-107287500D03*
D12*
G36*
X100732592Y-105176294D02*
X100758681Y-105180164D01*
X100784264Y-105186572D01*
X100809096Y-105195457D01*
X100832938Y-105206734D01*
X100855560Y-105220293D01*
X100876743Y-105236003D01*
X100896285Y-105253715D01*
X100913997Y-105273257D01*
X100929707Y-105294440D01*
X100943266Y-105317062D01*
X100954543Y-105340904D01*
X100963428Y-105365736D01*
X100969836Y-105391319D01*
X100973706Y-105417408D01*
X100975000Y-105443750D01*
X100975000Y-105981250D01*
X100973706Y-106007592D01*
X100969836Y-106033681D01*
X100963428Y-106059264D01*
X100954543Y-106084096D01*
X100943266Y-106107938D01*
X100929707Y-106130560D01*
X100913997Y-106151743D01*
X100896285Y-106171285D01*
X100876743Y-106188997D01*
X100855560Y-106204707D01*
X100832938Y-106218266D01*
X100809096Y-106229543D01*
X100784264Y-106238428D01*
X100758681Y-106244836D01*
X100732592Y-106248706D01*
X100706250Y-106250000D01*
X100093750Y-106250000D01*
X100067408Y-106248706D01*
X100041319Y-106244836D01*
X100015736Y-106238428D01*
X99990904Y-106229543D01*
X99967062Y-106218266D01*
X99944440Y-106204707D01*
X99923257Y-106188997D01*
X99903715Y-106171285D01*
X99886003Y-106151743D01*
X99870293Y-106130560D01*
X99856734Y-106107938D01*
X99845457Y-106084096D01*
X99836572Y-106059264D01*
X99830164Y-106033681D01*
X99826294Y-106007592D01*
X99825000Y-105981250D01*
X99825000Y-105443750D01*
X99826294Y-105417408D01*
X99830164Y-105391319D01*
X99836572Y-105365736D01*
X99845457Y-105340904D01*
X99856734Y-105317062D01*
X99870293Y-105294440D01*
X99886003Y-105273257D01*
X99903715Y-105253715D01*
X99923257Y-105236003D01*
X99944440Y-105220293D01*
X99967062Y-105206734D01*
X99990904Y-105195457D01*
X100015736Y-105186572D01*
X100041319Y-105180164D01*
X100067408Y-105176294D01*
X100093750Y-105175000D01*
X100706250Y-105175000D01*
X100732592Y-105176294D01*
X100732592Y-105176294D01*
G37*
D13*
X100400000Y-105712500D03*
G04 #@! TD*
D12*
G04 #@! TO.C,R3*
G36*
X104782592Y-97426294D02*
X104808681Y-97430164D01*
X104834264Y-97436572D01*
X104859096Y-97445457D01*
X104882938Y-97456734D01*
X104905560Y-97470293D01*
X104926743Y-97486003D01*
X104946285Y-97503715D01*
X104963997Y-97523257D01*
X104979707Y-97544440D01*
X104993266Y-97567062D01*
X105004543Y-97590904D01*
X105013428Y-97615736D01*
X105019836Y-97641319D01*
X105023706Y-97667408D01*
X105025000Y-97693750D01*
X105025000Y-98306250D01*
X105023706Y-98332592D01*
X105019836Y-98358681D01*
X105013428Y-98384264D01*
X105004543Y-98409096D01*
X104993266Y-98432938D01*
X104979707Y-98455560D01*
X104963997Y-98476743D01*
X104946285Y-98496285D01*
X104926743Y-98513997D01*
X104905560Y-98529707D01*
X104882938Y-98543266D01*
X104859096Y-98554543D01*
X104834264Y-98563428D01*
X104808681Y-98569836D01*
X104782592Y-98573706D01*
X104756250Y-98575000D01*
X104218750Y-98575000D01*
X104192408Y-98573706D01*
X104166319Y-98569836D01*
X104140736Y-98563428D01*
X104115904Y-98554543D01*
X104092062Y-98543266D01*
X104069440Y-98529707D01*
X104048257Y-98513997D01*
X104028715Y-98496285D01*
X104011003Y-98476743D01*
X103995293Y-98455560D01*
X103981734Y-98432938D01*
X103970457Y-98409096D01*
X103961572Y-98384264D01*
X103955164Y-98358681D01*
X103951294Y-98332592D01*
X103950000Y-98306250D01*
X103950000Y-97693750D01*
X103951294Y-97667408D01*
X103955164Y-97641319D01*
X103961572Y-97615736D01*
X103970457Y-97590904D01*
X103981734Y-97567062D01*
X103995293Y-97544440D01*
X104011003Y-97523257D01*
X104028715Y-97503715D01*
X104048257Y-97486003D01*
X104069440Y-97470293D01*
X104092062Y-97456734D01*
X104115904Y-97445457D01*
X104140736Y-97436572D01*
X104166319Y-97430164D01*
X104192408Y-97426294D01*
X104218750Y-97425000D01*
X104756250Y-97425000D01*
X104782592Y-97426294D01*
X104782592Y-97426294D01*
G37*
D13*
X104487500Y-98000000D03*
D12*
G36*
X103207592Y-97426294D02*
X103233681Y-97430164D01*
X103259264Y-97436572D01*
X103284096Y-97445457D01*
X103307938Y-97456734D01*
X103330560Y-97470293D01*
X103351743Y-97486003D01*
X103371285Y-97503715D01*
X103388997Y-97523257D01*
X103404707Y-97544440D01*
X103418266Y-97567062D01*
X103429543Y-97590904D01*
X103438428Y-97615736D01*
X103444836Y-97641319D01*
X103448706Y-97667408D01*
X103450000Y-97693750D01*
X103450000Y-98306250D01*
X103448706Y-98332592D01*
X103444836Y-98358681D01*
X103438428Y-98384264D01*
X103429543Y-98409096D01*
X103418266Y-98432938D01*
X103404707Y-98455560D01*
X103388997Y-98476743D01*
X103371285Y-98496285D01*
X103351743Y-98513997D01*
X103330560Y-98529707D01*
X103307938Y-98543266D01*
X103284096Y-98554543D01*
X103259264Y-98563428D01*
X103233681Y-98569836D01*
X103207592Y-98573706D01*
X103181250Y-98575000D01*
X102643750Y-98575000D01*
X102617408Y-98573706D01*
X102591319Y-98569836D01*
X102565736Y-98563428D01*
X102540904Y-98554543D01*
X102517062Y-98543266D01*
X102494440Y-98529707D01*
X102473257Y-98513997D01*
X102453715Y-98496285D01*
X102436003Y-98476743D01*
X102420293Y-98455560D01*
X102406734Y-98432938D01*
X102395457Y-98409096D01*
X102386572Y-98384264D01*
X102380164Y-98358681D01*
X102376294Y-98332592D01*
X102375000Y-98306250D01*
X102375000Y-97693750D01*
X102376294Y-97667408D01*
X102380164Y-97641319D01*
X102386572Y-97615736D01*
X102395457Y-97590904D01*
X102406734Y-97567062D01*
X102420293Y-97544440D01*
X102436003Y-97523257D01*
X102453715Y-97503715D01*
X102473257Y-97486003D01*
X102494440Y-97470293D01*
X102517062Y-97456734D01*
X102540904Y-97445457D01*
X102565736Y-97436572D01*
X102591319Y-97430164D01*
X102617408Y-97426294D01*
X102643750Y-97425000D01*
X103181250Y-97425000D01*
X103207592Y-97426294D01*
X103207592Y-97426294D01*
G37*
D13*
X102912500Y-98000000D03*
G04 #@! TD*
D12*
G04 #@! TO.C,R2*
G36*
X104782592Y-95926294D02*
X104808681Y-95930164D01*
X104834264Y-95936572D01*
X104859096Y-95945457D01*
X104882938Y-95956734D01*
X104905560Y-95970293D01*
X104926743Y-95986003D01*
X104946285Y-96003715D01*
X104963997Y-96023257D01*
X104979707Y-96044440D01*
X104993266Y-96067062D01*
X105004543Y-96090904D01*
X105013428Y-96115736D01*
X105019836Y-96141319D01*
X105023706Y-96167408D01*
X105025000Y-96193750D01*
X105025000Y-96806250D01*
X105023706Y-96832592D01*
X105019836Y-96858681D01*
X105013428Y-96884264D01*
X105004543Y-96909096D01*
X104993266Y-96932938D01*
X104979707Y-96955560D01*
X104963997Y-96976743D01*
X104946285Y-96996285D01*
X104926743Y-97013997D01*
X104905560Y-97029707D01*
X104882938Y-97043266D01*
X104859096Y-97054543D01*
X104834264Y-97063428D01*
X104808681Y-97069836D01*
X104782592Y-97073706D01*
X104756250Y-97075000D01*
X104218750Y-97075000D01*
X104192408Y-97073706D01*
X104166319Y-97069836D01*
X104140736Y-97063428D01*
X104115904Y-97054543D01*
X104092062Y-97043266D01*
X104069440Y-97029707D01*
X104048257Y-97013997D01*
X104028715Y-96996285D01*
X104011003Y-96976743D01*
X103995293Y-96955560D01*
X103981734Y-96932938D01*
X103970457Y-96909096D01*
X103961572Y-96884264D01*
X103955164Y-96858681D01*
X103951294Y-96832592D01*
X103950000Y-96806250D01*
X103950000Y-96193750D01*
X103951294Y-96167408D01*
X103955164Y-96141319D01*
X103961572Y-96115736D01*
X103970457Y-96090904D01*
X103981734Y-96067062D01*
X103995293Y-96044440D01*
X104011003Y-96023257D01*
X104028715Y-96003715D01*
X104048257Y-95986003D01*
X104069440Y-95970293D01*
X104092062Y-95956734D01*
X104115904Y-95945457D01*
X104140736Y-95936572D01*
X104166319Y-95930164D01*
X104192408Y-95926294D01*
X104218750Y-95925000D01*
X104756250Y-95925000D01*
X104782592Y-95926294D01*
X104782592Y-95926294D01*
G37*
D13*
X104487500Y-96500000D03*
D12*
G36*
X103207592Y-95926294D02*
X103233681Y-95930164D01*
X103259264Y-95936572D01*
X103284096Y-95945457D01*
X103307938Y-95956734D01*
X103330560Y-95970293D01*
X103351743Y-95986003D01*
X103371285Y-96003715D01*
X103388997Y-96023257D01*
X103404707Y-96044440D01*
X103418266Y-96067062D01*
X103429543Y-96090904D01*
X103438428Y-96115736D01*
X103444836Y-96141319D01*
X103448706Y-96167408D01*
X103450000Y-96193750D01*
X103450000Y-96806250D01*
X103448706Y-96832592D01*
X103444836Y-96858681D01*
X103438428Y-96884264D01*
X103429543Y-96909096D01*
X103418266Y-96932938D01*
X103404707Y-96955560D01*
X103388997Y-96976743D01*
X103371285Y-96996285D01*
X103351743Y-97013997D01*
X103330560Y-97029707D01*
X103307938Y-97043266D01*
X103284096Y-97054543D01*
X103259264Y-97063428D01*
X103233681Y-97069836D01*
X103207592Y-97073706D01*
X103181250Y-97075000D01*
X102643750Y-97075000D01*
X102617408Y-97073706D01*
X102591319Y-97069836D01*
X102565736Y-97063428D01*
X102540904Y-97054543D01*
X102517062Y-97043266D01*
X102494440Y-97029707D01*
X102473257Y-97013997D01*
X102453715Y-96996285D01*
X102436003Y-96976743D01*
X102420293Y-96955560D01*
X102406734Y-96932938D01*
X102395457Y-96909096D01*
X102386572Y-96884264D01*
X102380164Y-96858681D01*
X102376294Y-96832592D01*
X102375000Y-96806250D01*
X102375000Y-96193750D01*
X102376294Y-96167408D01*
X102380164Y-96141319D01*
X102386572Y-96115736D01*
X102395457Y-96090904D01*
X102406734Y-96067062D01*
X102420293Y-96044440D01*
X102436003Y-96023257D01*
X102453715Y-96003715D01*
X102473257Y-95986003D01*
X102494440Y-95970293D01*
X102517062Y-95956734D01*
X102540904Y-95945457D01*
X102565736Y-95936572D01*
X102591319Y-95930164D01*
X102617408Y-95926294D01*
X102643750Y-95925000D01*
X103181250Y-95925000D01*
X103207592Y-95926294D01*
X103207592Y-95926294D01*
G37*
D13*
X102912500Y-96500000D03*
G04 #@! TD*
D12*
G04 #@! TO.C,R1*
G36*
X103207592Y-98926294D02*
X103233681Y-98930164D01*
X103259264Y-98936572D01*
X103284096Y-98945457D01*
X103307938Y-98956734D01*
X103330560Y-98970293D01*
X103351743Y-98986003D01*
X103371285Y-99003715D01*
X103388997Y-99023257D01*
X103404707Y-99044440D01*
X103418266Y-99067062D01*
X103429543Y-99090904D01*
X103438428Y-99115736D01*
X103444836Y-99141319D01*
X103448706Y-99167408D01*
X103450000Y-99193750D01*
X103450000Y-99806250D01*
X103448706Y-99832592D01*
X103444836Y-99858681D01*
X103438428Y-99884264D01*
X103429543Y-99909096D01*
X103418266Y-99932938D01*
X103404707Y-99955560D01*
X103388997Y-99976743D01*
X103371285Y-99996285D01*
X103351743Y-100013997D01*
X103330560Y-100029707D01*
X103307938Y-100043266D01*
X103284096Y-100054543D01*
X103259264Y-100063428D01*
X103233681Y-100069836D01*
X103207592Y-100073706D01*
X103181250Y-100075000D01*
X102643750Y-100075000D01*
X102617408Y-100073706D01*
X102591319Y-100069836D01*
X102565736Y-100063428D01*
X102540904Y-100054543D01*
X102517062Y-100043266D01*
X102494440Y-100029707D01*
X102473257Y-100013997D01*
X102453715Y-99996285D01*
X102436003Y-99976743D01*
X102420293Y-99955560D01*
X102406734Y-99932938D01*
X102395457Y-99909096D01*
X102386572Y-99884264D01*
X102380164Y-99858681D01*
X102376294Y-99832592D01*
X102375000Y-99806250D01*
X102375000Y-99193750D01*
X102376294Y-99167408D01*
X102380164Y-99141319D01*
X102386572Y-99115736D01*
X102395457Y-99090904D01*
X102406734Y-99067062D01*
X102420293Y-99044440D01*
X102436003Y-99023257D01*
X102453715Y-99003715D01*
X102473257Y-98986003D01*
X102494440Y-98970293D01*
X102517062Y-98956734D01*
X102540904Y-98945457D01*
X102565736Y-98936572D01*
X102591319Y-98930164D01*
X102617408Y-98926294D01*
X102643750Y-98925000D01*
X103181250Y-98925000D01*
X103207592Y-98926294D01*
X103207592Y-98926294D01*
G37*
D13*
X102912500Y-99500000D03*
D12*
G36*
X104782592Y-98926294D02*
X104808681Y-98930164D01*
X104834264Y-98936572D01*
X104859096Y-98945457D01*
X104882938Y-98956734D01*
X104905560Y-98970293D01*
X104926743Y-98986003D01*
X104946285Y-99003715D01*
X104963997Y-99023257D01*
X104979707Y-99044440D01*
X104993266Y-99067062D01*
X105004543Y-99090904D01*
X105013428Y-99115736D01*
X105019836Y-99141319D01*
X105023706Y-99167408D01*
X105025000Y-99193750D01*
X105025000Y-99806250D01*
X105023706Y-99832592D01*
X105019836Y-99858681D01*
X105013428Y-99884264D01*
X105004543Y-99909096D01*
X104993266Y-99932938D01*
X104979707Y-99955560D01*
X104963997Y-99976743D01*
X104946285Y-99996285D01*
X104926743Y-100013997D01*
X104905560Y-100029707D01*
X104882938Y-100043266D01*
X104859096Y-100054543D01*
X104834264Y-100063428D01*
X104808681Y-100069836D01*
X104782592Y-100073706D01*
X104756250Y-100075000D01*
X104218750Y-100075000D01*
X104192408Y-100073706D01*
X104166319Y-100069836D01*
X104140736Y-100063428D01*
X104115904Y-100054543D01*
X104092062Y-100043266D01*
X104069440Y-100029707D01*
X104048257Y-100013997D01*
X104028715Y-99996285D01*
X104011003Y-99976743D01*
X103995293Y-99955560D01*
X103981734Y-99932938D01*
X103970457Y-99909096D01*
X103961572Y-99884264D01*
X103955164Y-99858681D01*
X103951294Y-99832592D01*
X103950000Y-99806250D01*
X103950000Y-99193750D01*
X103951294Y-99167408D01*
X103955164Y-99141319D01*
X103961572Y-99115736D01*
X103970457Y-99090904D01*
X103981734Y-99067062D01*
X103995293Y-99044440D01*
X104011003Y-99023257D01*
X104028715Y-99003715D01*
X104048257Y-98986003D01*
X104069440Y-98970293D01*
X104092062Y-98956734D01*
X104115904Y-98945457D01*
X104140736Y-98936572D01*
X104166319Y-98930164D01*
X104192408Y-98926294D01*
X104218750Y-98925000D01*
X104756250Y-98925000D01*
X104782592Y-98926294D01*
X104782592Y-98926294D01*
G37*
D13*
X104487500Y-99500000D03*
G04 #@! TD*
M02*
