G04 #@! TF.GenerationSoftware,KiCad,Pcbnew,5.1.0-060a0da~80~ubuntu18.04.1*
G04 #@! TF.CreationDate,2019-03-25T17:50:22+01:00*
G04 #@! TF.ProjectId,mav_ovp,6d61765f-6f76-4702-9e6b-696361645f70,rev?*
G04 #@! TF.SameCoordinates,Original*
G04 #@! TF.FileFunction,Legend,Bot*
G04 #@! TF.FilePolarity,Positive*
%FSLAX46Y46*%
G04 Gerber Fmt 4.6, Leading zero omitted, Abs format (unit mm)*
G04 Created by KiCad (PCBNEW 5.1.0-060a0da~80~ubuntu18.04.1) date 2019-03-25 17:50:22*
%MOMM*%
%LPD*%
G04 APERTURE LIST*
%ADD10C,0.200000*%
%ADD11C,0.300000*%
%ADD12C,1.600000*%
G04 APERTURE END LIST*
D10*
X97752380Y-92142857D02*
X97752380Y-92333333D01*
X97800000Y-92428571D01*
X97895238Y-92523809D01*
X98085714Y-92571428D01*
X98419047Y-92571428D01*
X98609523Y-92523809D01*
X98704761Y-92428571D01*
X98752380Y-92333333D01*
X98752380Y-92142857D01*
X98704761Y-92047619D01*
X98609523Y-91952380D01*
X98419047Y-91904761D01*
X98085714Y-91904761D01*
X97895238Y-91952380D01*
X97800000Y-92047619D01*
X97752380Y-92142857D01*
X98085714Y-92904761D02*
X98752380Y-93142857D01*
X98085714Y-93380952D01*
X98704761Y-94142857D02*
X98752380Y-94047619D01*
X98752380Y-93857142D01*
X98704761Y-93761904D01*
X98609523Y-93714285D01*
X98228571Y-93714285D01*
X98133333Y-93761904D01*
X98085714Y-93857142D01*
X98085714Y-94047619D01*
X98133333Y-94142857D01*
X98228571Y-94190476D01*
X98323809Y-94190476D01*
X98419047Y-93714285D01*
X98752380Y-94619047D02*
X98085714Y-94619047D01*
X98276190Y-94619047D02*
X98180952Y-94666666D01*
X98133333Y-94714285D01*
X98085714Y-94809523D01*
X98085714Y-94904761D01*
X98085714Y-95142857D02*
X98752380Y-95380952D01*
X98085714Y-95619047D01*
X98752380Y-96142857D02*
X98704761Y-96047619D01*
X98657142Y-96000000D01*
X98561904Y-95952380D01*
X98276190Y-95952380D01*
X98180952Y-96000000D01*
X98133333Y-96047619D01*
X98085714Y-96142857D01*
X98085714Y-96285714D01*
X98133333Y-96380952D01*
X98180952Y-96428571D01*
X98276190Y-96476190D01*
X98561904Y-96476190D01*
X98657142Y-96428571D01*
X98704761Y-96380952D01*
X98752380Y-96285714D01*
X98752380Y-96142857D01*
X98752380Y-97047619D02*
X98704761Y-96952380D01*
X98609523Y-96904761D01*
X97752380Y-96904761D01*
X98085714Y-97285714D02*
X98085714Y-97666666D01*
X97752380Y-97428571D02*
X98609523Y-97428571D01*
X98704761Y-97476190D01*
X98752380Y-97571428D01*
X98752380Y-97666666D01*
X98752380Y-98428571D02*
X98228571Y-98428571D01*
X98133333Y-98380952D01*
X98085714Y-98285714D01*
X98085714Y-98095238D01*
X98133333Y-98000000D01*
X98704761Y-98428571D02*
X98752380Y-98333333D01*
X98752380Y-98095238D01*
X98704761Y-98000000D01*
X98609523Y-97952380D01*
X98514285Y-97952380D01*
X98419047Y-98000000D01*
X98371428Y-98095238D01*
X98371428Y-98333333D01*
X98323809Y-98428571D01*
X98085714Y-99333333D02*
X98895238Y-99333333D01*
X98990476Y-99285714D01*
X99038095Y-99238095D01*
X99085714Y-99142857D01*
X99085714Y-99000000D01*
X99038095Y-98904761D01*
X98704761Y-99333333D02*
X98752380Y-99238095D01*
X98752380Y-99047619D01*
X98704761Y-98952380D01*
X98657142Y-98904761D01*
X98561904Y-98857142D01*
X98276190Y-98857142D01*
X98180952Y-98904761D01*
X98133333Y-98952380D01*
X98085714Y-99047619D01*
X98085714Y-99238095D01*
X98133333Y-99333333D01*
X98704761Y-100190476D02*
X98752380Y-100095238D01*
X98752380Y-99904761D01*
X98704761Y-99809523D01*
X98609523Y-99761904D01*
X98228571Y-99761904D01*
X98133333Y-99809523D01*
X98085714Y-99904761D01*
X98085714Y-100095238D01*
X98133333Y-100190476D01*
X98228571Y-100238095D01*
X98323809Y-100238095D01*
X98419047Y-99761904D01*
X99133333Y-101714285D02*
X99085714Y-101666666D01*
X98942857Y-101571428D01*
X98847619Y-101523809D01*
X98704761Y-101476190D01*
X98466666Y-101428571D01*
X98276190Y-101428571D01*
X98038095Y-101476190D01*
X97895238Y-101523809D01*
X97800000Y-101571428D01*
X97657142Y-101666666D01*
X97609523Y-101714285D01*
X97752380Y-102523809D02*
X97752380Y-102333333D01*
X97800000Y-102238095D01*
X97847619Y-102190476D01*
X97990476Y-102095238D01*
X98180952Y-102047619D01*
X98561904Y-102047619D01*
X98657142Y-102095238D01*
X98704761Y-102142857D01*
X98752380Y-102238095D01*
X98752380Y-102428571D01*
X98704761Y-102523809D01*
X98657142Y-102571428D01*
X98561904Y-102619047D01*
X98323809Y-102619047D01*
X98228571Y-102571428D01*
X98180952Y-102523809D01*
X98133333Y-102428571D01*
X98133333Y-102238095D01*
X98180952Y-102142857D01*
X98228571Y-102095238D01*
X98323809Y-102047619D01*
X97752380Y-103238095D02*
X97752380Y-103333333D01*
X97800000Y-103428571D01*
X97847619Y-103476190D01*
X97942857Y-103523809D01*
X98133333Y-103571428D01*
X98371428Y-103571428D01*
X98561904Y-103523809D01*
X98657142Y-103476190D01*
X98704761Y-103428571D01*
X98752380Y-103333333D01*
X98752380Y-103238095D01*
X98704761Y-103142857D01*
X98657142Y-103095238D01*
X98561904Y-103047619D01*
X98371428Y-103000000D01*
X98133333Y-103000000D01*
X97942857Y-103047619D01*
X97847619Y-103095238D01*
X97800000Y-103142857D01*
X97752380Y-103238095D01*
X97752380Y-103857142D02*
X98752380Y-104190476D01*
X97752380Y-104523809D01*
X99133333Y-104761904D02*
X99085714Y-104809523D01*
X98942857Y-104904761D01*
X98847619Y-104952380D01*
X98704761Y-105000000D01*
X98466666Y-105047619D01*
X98276190Y-105047619D01*
X98038095Y-105000000D01*
X97895238Y-104952380D01*
X97800000Y-104904761D01*
X97657142Y-104809523D01*
X97609523Y-104761904D01*
X100452380Y-92595238D02*
X100452380Y-92547619D01*
X100404761Y-92452380D01*
X100261904Y-92309523D01*
X99976190Y-92071428D01*
X99833333Y-91976190D01*
X99690476Y-91928571D01*
X99595238Y-91928571D01*
X99500000Y-91976190D01*
X99452380Y-92071428D01*
X99452380Y-92119047D01*
X99500000Y-92214285D01*
X99595238Y-92261904D01*
X99642857Y-92261904D01*
X99738095Y-92214285D01*
X99785714Y-92166666D01*
X99976190Y-91880952D01*
X100023809Y-91833333D01*
X100119047Y-91785714D01*
X100261904Y-91785714D01*
X100357142Y-91833333D01*
X100404761Y-91880952D01*
X100452380Y-91976190D01*
X100452380Y-92119047D01*
X100404761Y-92214285D01*
X100357142Y-92261904D01*
X100166666Y-92404761D01*
X100023809Y-92452380D01*
X99928571Y-92452380D01*
X100404761Y-93738095D02*
X100452380Y-93880952D01*
X100452380Y-94119047D01*
X100404761Y-94214285D01*
X100357142Y-94261904D01*
X100261904Y-94309523D01*
X100166666Y-94309523D01*
X100071428Y-94261904D01*
X100023809Y-94214285D01*
X99976190Y-94119047D01*
X99928571Y-93928571D01*
X99880952Y-93833333D01*
X99833333Y-93785714D01*
X99738095Y-93738095D01*
X99642857Y-93738095D01*
X99547619Y-93785714D01*
X99500000Y-93833333D01*
X99452380Y-93928571D01*
X99452380Y-94166666D01*
X99500000Y-94309523D01*
X99785714Y-95166666D02*
X100452380Y-95166666D01*
X99785714Y-94738095D02*
X100309523Y-94738095D01*
X100404761Y-94785714D01*
X100452380Y-94880952D01*
X100452380Y-95023809D01*
X100404761Y-95119047D01*
X100357142Y-95166666D01*
X100452380Y-95642857D02*
X99785714Y-95642857D01*
X99976190Y-95642857D02*
X99880952Y-95690476D01*
X99833333Y-95738095D01*
X99785714Y-95833333D01*
X99785714Y-95928571D01*
X99785714Y-96690476D02*
X100595238Y-96690476D01*
X100690476Y-96642857D01*
X100738095Y-96595238D01*
X100785714Y-96500000D01*
X100785714Y-96357142D01*
X100738095Y-96261904D01*
X100404761Y-96690476D02*
X100452380Y-96595238D01*
X100452380Y-96404761D01*
X100404761Y-96309523D01*
X100357142Y-96261904D01*
X100261904Y-96214285D01*
X99976190Y-96214285D01*
X99880952Y-96261904D01*
X99833333Y-96309523D01*
X99785714Y-96404761D01*
X99785714Y-96595238D01*
X99833333Y-96690476D01*
X100404761Y-97547619D02*
X100452380Y-97452380D01*
X100452380Y-97261904D01*
X100404761Y-97166666D01*
X100309523Y-97119047D01*
X99928571Y-97119047D01*
X99833333Y-97166666D01*
X99785714Y-97261904D01*
X99785714Y-97452380D01*
X99833333Y-97547619D01*
X99928571Y-97595238D01*
X100023809Y-97595238D01*
X100119047Y-97119047D01*
X100452380Y-98785714D02*
X99452380Y-98785714D01*
X99452380Y-99166666D01*
X99500000Y-99261904D01*
X99547619Y-99309523D01*
X99642857Y-99357142D01*
X99785714Y-99357142D01*
X99880952Y-99309523D01*
X99928571Y-99261904D01*
X99976190Y-99166666D01*
X99976190Y-98785714D01*
X100452380Y-99785714D02*
X99785714Y-99785714D01*
X99976190Y-99785714D02*
X99880952Y-99833333D01*
X99833333Y-99880952D01*
X99785714Y-99976190D01*
X99785714Y-100071428D01*
X100452380Y-100547619D02*
X100404761Y-100452380D01*
X100357142Y-100404761D01*
X100261904Y-100357142D01*
X99976190Y-100357142D01*
X99880952Y-100404761D01*
X99833333Y-100452380D01*
X99785714Y-100547619D01*
X99785714Y-100690476D01*
X99833333Y-100785714D01*
X99880952Y-100833333D01*
X99976190Y-100880952D01*
X100261904Y-100880952D01*
X100357142Y-100833333D01*
X100404761Y-100785714D01*
X100452380Y-100690476D01*
X100452380Y-100547619D01*
X99785714Y-101166666D02*
X99785714Y-101547619D01*
X99452380Y-101309523D02*
X100309523Y-101309523D01*
X100404761Y-101357142D01*
X100452380Y-101452380D01*
X100452380Y-101547619D01*
X100404761Y-102261904D02*
X100452380Y-102166666D01*
X100452380Y-101976190D01*
X100404761Y-101880952D01*
X100309523Y-101833333D01*
X99928571Y-101833333D01*
X99833333Y-101880952D01*
X99785714Y-101976190D01*
X99785714Y-102166666D01*
X99833333Y-102261904D01*
X99928571Y-102309523D01*
X100023809Y-102309523D01*
X100119047Y-101833333D01*
X100404761Y-103166666D02*
X100452380Y-103071428D01*
X100452380Y-102880952D01*
X100404761Y-102785714D01*
X100357142Y-102738095D01*
X100261904Y-102690476D01*
X99976190Y-102690476D01*
X99880952Y-102738095D01*
X99833333Y-102785714D01*
X99785714Y-102880952D01*
X99785714Y-103071428D01*
X99833333Y-103166666D01*
X99785714Y-103452380D02*
X99785714Y-103833333D01*
X99452380Y-103595238D02*
X100309523Y-103595238D01*
X100404761Y-103642857D01*
X100452380Y-103738095D01*
X100452380Y-103833333D01*
X100452380Y-104309523D02*
X100404761Y-104214285D01*
X100357142Y-104166666D01*
X100261904Y-104119047D01*
X99976190Y-104119047D01*
X99880952Y-104166666D01*
X99833333Y-104214285D01*
X99785714Y-104309523D01*
X99785714Y-104452380D01*
X99833333Y-104547619D01*
X99880952Y-104595238D01*
X99976190Y-104642857D01*
X100261904Y-104642857D01*
X100357142Y-104595238D01*
X100404761Y-104547619D01*
X100452380Y-104452380D01*
X100452380Y-104309523D01*
X100452380Y-105071428D02*
X99785714Y-105071428D01*
X99976190Y-105071428D02*
X99880952Y-105119047D01*
X99833333Y-105166666D01*
X99785714Y-105261904D01*
X99785714Y-105357142D01*
X101628571Y-94761904D02*
X101628571Y-95095238D01*
X102152380Y-95238095D02*
X102152380Y-94761904D01*
X101152380Y-94761904D01*
X101152380Y-95238095D01*
X102152380Y-95666666D02*
X101485714Y-95666666D01*
X101580952Y-95666666D02*
X101533333Y-95714285D01*
X101485714Y-95809523D01*
X101485714Y-95952380D01*
X101533333Y-96047619D01*
X101628571Y-96095238D01*
X102152380Y-96095238D01*
X101628571Y-96095238D02*
X101533333Y-96142857D01*
X101485714Y-96238095D01*
X101485714Y-96380952D01*
X101533333Y-96476190D01*
X101628571Y-96523809D01*
X102152380Y-96523809D01*
X102152380Y-97000000D02*
X101485714Y-97000000D01*
X101152380Y-97000000D02*
X101200000Y-96952380D01*
X101247619Y-97000000D01*
X101200000Y-97047619D01*
X101152380Y-97000000D01*
X101247619Y-97000000D01*
X102152380Y-97619047D02*
X102104761Y-97523809D01*
X102009523Y-97476190D01*
X101152380Y-97476190D01*
X101628571Y-99095238D02*
X101628571Y-98761904D01*
X102152380Y-98761904D02*
X101152380Y-98761904D01*
X101152380Y-99238095D01*
X102152380Y-99619047D02*
X101485714Y-99619047D01*
X101676190Y-99619047D02*
X101580952Y-99666666D01*
X101533333Y-99714285D01*
X101485714Y-99809523D01*
X101485714Y-99904761D01*
X102104761Y-100619047D02*
X102152380Y-100523809D01*
X102152380Y-100333333D01*
X102104761Y-100238095D01*
X102009523Y-100190476D01*
X101628571Y-100190476D01*
X101533333Y-100238095D01*
X101485714Y-100333333D01*
X101485714Y-100523809D01*
X101533333Y-100619047D01*
X101628571Y-100666666D01*
X101723809Y-100666666D01*
X101819047Y-100190476D01*
X102104761Y-101047619D02*
X102152380Y-101142857D01*
X102152380Y-101333333D01*
X102104761Y-101428571D01*
X102009523Y-101476190D01*
X101961904Y-101476190D01*
X101866666Y-101428571D01*
X101819047Y-101333333D01*
X101819047Y-101190476D01*
X101771428Y-101095238D01*
X101676190Y-101047619D01*
X101628571Y-101047619D01*
X101533333Y-101095238D01*
X101485714Y-101190476D01*
X101485714Y-101333333D01*
X101533333Y-101428571D01*
X102152380Y-101904761D02*
X101152380Y-101904761D01*
X101771428Y-102000000D02*
X102152380Y-102285714D01*
X101485714Y-102285714D02*
X101866666Y-101904761D01*
D11*
X94978571Y-89157142D02*
X96478571Y-89657142D01*
X94978571Y-90157142D01*
X94978571Y-90942857D02*
X94978571Y-91228571D01*
X95050000Y-91371428D01*
X95192857Y-91514285D01*
X95478571Y-91585714D01*
X95978571Y-91585714D01*
X96264285Y-91514285D01*
X96407142Y-91371428D01*
X96478571Y-91228571D01*
X96478571Y-90942857D01*
X96407142Y-90800000D01*
X96264285Y-90657142D01*
X95978571Y-90585714D01*
X95478571Y-90585714D01*
X95192857Y-90657142D01*
X95050000Y-90800000D01*
X94978571Y-90942857D01*
X94978571Y-92228571D02*
X96192857Y-92228571D01*
X96335714Y-92300000D01*
X96407142Y-92371428D01*
X96478571Y-92514285D01*
X96478571Y-92800000D01*
X96407142Y-92942857D01*
X96335714Y-93014285D01*
X96192857Y-93085714D01*
X94978571Y-93085714D01*
X94978571Y-93585714D02*
X94978571Y-94442857D01*
X96478571Y-94014285D02*
X94978571Y-94014285D01*
X94978571Y-103557142D02*
X96478571Y-104057142D01*
X94978571Y-104557142D01*
X96478571Y-105057142D02*
X94978571Y-105057142D01*
X96478571Y-105771428D02*
X94978571Y-105771428D01*
X96478571Y-106628571D01*
X94978571Y-106628571D01*
X103650000Y-90157142D02*
X103578571Y-90014285D01*
X103578571Y-89800000D01*
X103650000Y-89585714D01*
X103792857Y-89442857D01*
X103935714Y-89371428D01*
X104221428Y-89300000D01*
X104435714Y-89300000D01*
X104721428Y-89371428D01*
X104864285Y-89442857D01*
X105007142Y-89585714D01*
X105078571Y-89800000D01*
X105078571Y-89942857D01*
X105007142Y-90157142D01*
X104935714Y-90228571D01*
X104435714Y-90228571D01*
X104435714Y-89942857D01*
X105078571Y-90871428D02*
X103578571Y-90871428D01*
X105078571Y-91728571D01*
X103578571Y-91728571D01*
X105078571Y-92442857D02*
X103578571Y-92442857D01*
X103578571Y-92800000D01*
X103650000Y-93014285D01*
X103792857Y-93157142D01*
X103935714Y-93228571D01*
X104221428Y-93300000D01*
X104435714Y-93300000D01*
X104721428Y-93228571D01*
X104864285Y-93157142D01*
X105007142Y-93014285D01*
X105078571Y-92800000D01*
X105078571Y-92442857D01*
X103650000Y-103557142D02*
X103578571Y-103414285D01*
X103578571Y-103200000D01*
X103650000Y-102985714D01*
X103792857Y-102842857D01*
X103935714Y-102771428D01*
X104221428Y-102700000D01*
X104435714Y-102700000D01*
X104721428Y-102771428D01*
X104864285Y-102842857D01*
X105007142Y-102985714D01*
X105078571Y-103200000D01*
X105078571Y-103342857D01*
X105007142Y-103557142D01*
X104935714Y-103628571D01*
X104435714Y-103628571D01*
X104435714Y-103342857D01*
X105078571Y-104271428D02*
X103578571Y-104271428D01*
X105078571Y-105128571D01*
X103578571Y-105128571D01*
X105078571Y-105842857D02*
X103578571Y-105842857D01*
X103578571Y-106200000D01*
X103650000Y-106414285D01*
X103792857Y-106557142D01*
X103935714Y-106628571D01*
X104221428Y-106700000D01*
X104435714Y-106700000D01*
X104721428Y-106628571D01*
X104864285Y-106557142D01*
X105007142Y-106414285D01*
X105078571Y-106200000D01*
X105078571Y-105842857D01*
%LPC*%
D12*
X104500000Y-88000000D03*
X104500000Y-108000000D03*
X95500000Y-88000000D03*
X95500000Y-108000000D03*
M02*
